G04 EAGLE Gerber RS-274X export*
G75*
%MOMM*%
%FSLAX34Y34*%
%LPD*%
%INTop Copper*%
%IPPOS*%
%AMOC8*
5,1,8,0,0,1.08239X$1,22.5*%
G01*
%ADD10R,4.445000X1.270000*%
%ADD11R,3.810000X1.270000*%
%ADD12R,5.080000X1.270000*%
%ADD13C,1.016000*%
%ADD14R,4.445000X1.587500*%
%ADD15C,1.524000*%
%ADD16R,1.000000X0.900000*%
%ADD17R,1.066800X2.184400*%
%ADD18C,1.524000*%

G36*
X451798Y-2536D02*
X451798Y-2536D01*
X451817Y-2538D01*
X451919Y-2516D01*
X452021Y-2500D01*
X452038Y-2490D01*
X452058Y-2486D01*
X452147Y-2433D01*
X452238Y-2384D01*
X452252Y-2370D01*
X452269Y-2360D01*
X452336Y-2281D01*
X452408Y-2206D01*
X452416Y-2188D01*
X452429Y-2173D01*
X452468Y-2077D01*
X452511Y-1983D01*
X452513Y-1963D01*
X452521Y-1945D01*
X452539Y-1778D01*
X452539Y249972D01*
X452525Y250062D01*
X452517Y250153D01*
X452505Y250183D01*
X452500Y250215D01*
X452457Y250295D01*
X452421Y250379D01*
X452395Y250411D01*
X452384Y250432D01*
X452361Y250454D01*
X452316Y250510D01*
X312288Y390538D01*
X312214Y390591D01*
X312145Y390651D01*
X312115Y390663D01*
X312089Y390682D01*
X312002Y390709D01*
X311917Y390743D01*
X311876Y390747D01*
X311853Y390754D01*
X311821Y390753D01*
X311750Y390761D01*
X306646Y390761D01*
X306556Y390747D01*
X306465Y390739D01*
X306435Y390727D01*
X306403Y390722D01*
X306323Y390679D01*
X306239Y390643D01*
X306207Y390617D01*
X306186Y390606D01*
X306164Y390583D01*
X306108Y390538D01*
X303356Y387786D01*
X299621Y386239D01*
X295579Y386239D01*
X291844Y387786D01*
X289092Y390538D01*
X289018Y390591D01*
X288949Y390651D01*
X288919Y390663D01*
X288893Y390682D01*
X288806Y390709D01*
X288721Y390743D01*
X288680Y390747D01*
X288657Y390754D01*
X288625Y390753D01*
X288554Y390761D01*
X154246Y390761D01*
X154156Y390747D01*
X154065Y390739D01*
X154035Y390727D01*
X154003Y390722D01*
X153923Y390679D01*
X153839Y390643D01*
X153807Y390617D01*
X153786Y390606D01*
X153764Y390583D01*
X153708Y390538D01*
X150956Y387786D01*
X147221Y386239D01*
X143179Y386239D01*
X139444Y387786D01*
X137740Y389490D01*
X137724Y389502D01*
X137712Y389517D01*
X137624Y389574D01*
X137541Y389634D01*
X137522Y389640D01*
X137505Y389650D01*
X137404Y389676D01*
X137305Y389706D01*
X137286Y389706D01*
X137266Y389711D01*
X137163Y389702D01*
X137060Y389700D01*
X137041Y389693D01*
X137021Y389691D01*
X136926Y389651D01*
X136829Y389615D01*
X136813Y389603D01*
X136795Y389595D01*
X136664Y389490D01*
X-2316Y250510D01*
X-2369Y250436D01*
X-2429Y250367D01*
X-2441Y250337D01*
X-2460Y250311D01*
X-2487Y250224D01*
X-2521Y250139D01*
X-2525Y250098D01*
X-2532Y250075D01*
X-2531Y250043D01*
X-2539Y249972D01*
X-2539Y-1778D01*
X-2536Y-1798D01*
X-2538Y-1817D01*
X-2516Y-1919D01*
X-2500Y-2021D01*
X-2490Y-2038D01*
X-2486Y-2058D01*
X-2433Y-2147D01*
X-2384Y-2238D01*
X-2370Y-2252D01*
X-2360Y-2269D01*
X-2281Y-2336D01*
X-2206Y-2408D01*
X-2188Y-2416D01*
X-2173Y-2429D01*
X-2077Y-2468D01*
X-1983Y-2511D01*
X-1963Y-2513D01*
X-1945Y-2521D01*
X-1778Y-2539D01*
X451778Y-2539D01*
X451798Y-2536D01*
G37*
%LPC*%
G36*
X361984Y3529D02*
X361984Y3529D01*
X359183Y4689D01*
X357740Y6132D01*
X355489Y8383D01*
X354329Y11184D01*
X354329Y14216D01*
X355489Y17017D01*
X357633Y19161D01*
X360434Y20321D01*
X372918Y20321D01*
X372938Y20324D01*
X372957Y20322D01*
X373059Y20344D01*
X373161Y20360D01*
X373178Y20370D01*
X373198Y20374D01*
X373287Y20427D01*
X373378Y20476D01*
X373392Y20490D01*
X373409Y20500D01*
X373476Y20579D01*
X373548Y20654D01*
X373556Y20672D01*
X373569Y20687D01*
X373608Y20783D01*
X373651Y20877D01*
X373653Y20897D01*
X373661Y20915D01*
X373679Y21082D01*
X373679Y44473D01*
X373665Y44563D01*
X373657Y44654D01*
X373645Y44684D01*
X373640Y44716D01*
X373597Y44797D01*
X373561Y44881D01*
X373535Y44913D01*
X373524Y44933D01*
X373501Y44956D01*
X373456Y45012D01*
X370870Y47598D01*
X370812Y47639D01*
X370760Y47689D01*
X370713Y47711D01*
X370671Y47741D01*
X370602Y47762D01*
X370537Y47793D01*
X370485Y47798D01*
X370435Y47814D01*
X370364Y47812D01*
X370293Y47820D01*
X370242Y47809D01*
X370190Y47807D01*
X370122Y47783D01*
X370052Y47767D01*
X370008Y47741D01*
X369959Y47723D01*
X369903Y47678D01*
X369841Y47641D01*
X369807Y47602D01*
X369767Y47569D01*
X369728Y47509D01*
X369681Y47454D01*
X369662Y47406D01*
X369634Y47362D01*
X369616Y47293D01*
X369589Y47226D01*
X369581Y47155D01*
X369573Y47124D01*
X369575Y47100D01*
X369571Y47059D01*
X369571Y36584D01*
X368411Y33783D01*
X344042Y9414D01*
X341241Y8254D01*
X287409Y8254D01*
X284608Y9414D01*
X235666Y58356D01*
X235592Y58409D01*
X235523Y58469D01*
X235493Y58481D01*
X235467Y58500D01*
X235380Y58527D01*
X235295Y58561D01*
X235254Y58565D01*
X235232Y58572D01*
X235199Y58571D01*
X235128Y58579D01*
X152264Y58579D01*
X152174Y58565D01*
X152083Y58557D01*
X152053Y58545D01*
X152021Y58540D01*
X151941Y58497D01*
X151857Y58461D01*
X151825Y58435D01*
X151804Y58424D01*
X151782Y58401D01*
X151726Y58356D01*
X150956Y57586D01*
X149061Y56801D01*
X148961Y56740D01*
X148861Y56680D01*
X148857Y56675D01*
X148852Y56672D01*
X148777Y56582D01*
X148701Y56493D01*
X148699Y56487D01*
X148695Y56482D01*
X148653Y56374D01*
X148609Y56265D01*
X148608Y56257D01*
X148607Y56253D01*
X148606Y56234D01*
X148591Y56098D01*
X147102Y54609D01*
X100548Y54609D01*
X99059Y56098D01*
X99059Y70902D01*
X100548Y72391D01*
X136706Y72391D01*
X136796Y72405D01*
X136887Y72413D01*
X136917Y72425D01*
X136949Y72430D01*
X137029Y72473D01*
X137113Y72509D01*
X137145Y72535D01*
X137166Y72546D01*
X137188Y72569D01*
X137244Y72614D01*
X139444Y74814D01*
X143179Y76361D01*
X147221Y76361D01*
X150956Y74814D01*
X151726Y74044D01*
X151800Y73991D01*
X151869Y73931D01*
X151899Y73919D01*
X151926Y73900D01*
X152012Y73873D01*
X152097Y73839D01*
X152138Y73835D01*
X152161Y73828D01*
X152193Y73829D01*
X152264Y73821D01*
X240116Y73821D01*
X242917Y72661D01*
X291859Y23719D01*
X291933Y23666D01*
X292002Y23606D01*
X292032Y23594D01*
X292058Y23575D01*
X292145Y23548D01*
X292230Y23514D01*
X292271Y23510D01*
X292293Y23503D01*
X292326Y23504D01*
X292397Y23496D01*
X336253Y23496D01*
X336343Y23510D01*
X336434Y23518D01*
X336464Y23530D01*
X336496Y23535D01*
X336577Y23578D01*
X336660Y23614D01*
X336693Y23640D01*
X336713Y23651D01*
X336735Y23674D01*
X336791Y23719D01*
X354106Y41034D01*
X354159Y41108D01*
X354219Y41177D01*
X354231Y41207D01*
X354250Y41233D01*
X354277Y41320D01*
X354311Y41405D01*
X354315Y41446D01*
X354322Y41468D01*
X354321Y41501D01*
X354329Y41572D01*
X354329Y43264D01*
X354318Y43335D01*
X354316Y43407D01*
X354298Y43456D01*
X354290Y43507D01*
X354256Y43570D01*
X354231Y43638D01*
X354199Y43678D01*
X354174Y43724D01*
X354122Y43774D01*
X354078Y43830D01*
X354034Y43858D01*
X353996Y43894D01*
X353931Y43924D01*
X353871Y43963D01*
X353820Y43975D01*
X353773Y43997D01*
X353702Y44005D01*
X353632Y44023D01*
X353580Y44019D01*
X353529Y44024D01*
X353458Y44009D01*
X353387Y44004D01*
X353339Y43983D01*
X353288Y43972D01*
X353227Y43935D01*
X353161Y43907D01*
X353105Y43862D01*
X353077Y43846D01*
X353062Y43828D01*
X353030Y43802D01*
X347217Y37989D01*
X344416Y36829D01*
X339852Y36829D01*
X339832Y36826D01*
X339813Y36828D01*
X339711Y36806D01*
X339609Y36790D01*
X339592Y36780D01*
X339572Y36776D01*
X339483Y36723D01*
X339392Y36674D01*
X339378Y36660D01*
X339361Y36650D01*
X339294Y36571D01*
X339222Y36496D01*
X339214Y36478D01*
X339201Y36463D01*
X339162Y36367D01*
X339119Y36273D01*
X339117Y36253D01*
X339109Y36235D01*
X339091Y36068D01*
X339091Y30698D01*
X337602Y29209D01*
X297398Y29209D01*
X296191Y30416D01*
X296117Y30469D01*
X296047Y30529D01*
X296017Y30541D01*
X295991Y30560D01*
X295904Y30587D01*
X295819Y30621D01*
X295778Y30625D01*
X295756Y30632D01*
X295724Y30631D01*
X295652Y30639D01*
X295579Y30639D01*
X291844Y32186D01*
X288986Y35044D01*
X287439Y38779D01*
X287439Y42821D01*
X288986Y46556D01*
X291844Y49414D01*
X295579Y50961D01*
X296903Y50961D01*
X296968Y50971D01*
X297033Y50972D01*
X297113Y50995D01*
X297146Y51000D01*
X297163Y51010D01*
X297194Y51019D01*
X299734Y52071D01*
X339428Y52071D01*
X339518Y52085D01*
X339609Y52093D01*
X339639Y52105D01*
X339671Y52110D01*
X339752Y52153D01*
X339835Y52189D01*
X339868Y52215D01*
X339888Y52226D01*
X339910Y52249D01*
X339966Y52294D01*
X341406Y53734D01*
X341459Y53808D01*
X341519Y53877D01*
X341531Y53907D01*
X341550Y53933D01*
X341577Y54020D01*
X341611Y54105D01*
X341615Y54146D01*
X341622Y54168D01*
X341621Y54201D01*
X341629Y54272D01*
X341629Y82930D01*
X341619Y82993D01*
X341619Y83056D01*
X341599Y83113D01*
X341590Y83173D01*
X341560Y83229D01*
X341540Y83289D01*
X341503Y83337D01*
X341474Y83391D01*
X341429Y83434D01*
X341390Y83484D01*
X341340Y83518D01*
X341296Y83560D01*
X341239Y83587D01*
X341186Y83622D01*
X341128Y83638D01*
X341073Y83664D01*
X341010Y83670D01*
X340949Y83687D01*
X340889Y83684D01*
X340829Y83691D01*
X340767Y83677D01*
X340704Y83674D01*
X340648Y83651D01*
X340588Y83638D01*
X340534Y83606D01*
X340475Y83582D01*
X340429Y83543D01*
X340377Y83512D01*
X340336Y83464D01*
X340288Y83423D01*
X340239Y83350D01*
X340217Y83325D01*
X340210Y83309D01*
X340194Y83284D01*
X338026Y79154D01*
X332237Y75158D01*
X325253Y74310D01*
X318676Y76804D01*
X314939Y81023D01*
X314850Y81095D01*
X314764Y81169D01*
X314755Y81172D01*
X314748Y81178D01*
X314641Y81218D01*
X314535Y81261D01*
X314524Y81262D01*
X314518Y81265D01*
X314494Y81265D01*
X314369Y81279D01*
X277884Y81279D01*
X275083Y82439D01*
X222966Y134556D01*
X222892Y134609D01*
X222823Y134669D01*
X222793Y134681D01*
X222767Y134700D01*
X222680Y134727D01*
X222595Y134761D01*
X222554Y134765D01*
X222532Y134772D01*
X222499Y134771D01*
X222428Y134779D01*
X152264Y134779D01*
X152174Y134765D01*
X152083Y134757D01*
X152053Y134745D01*
X152021Y134740D01*
X151941Y134697D01*
X151857Y134661D01*
X151825Y134635D01*
X151804Y134624D01*
X151782Y134601D01*
X151726Y134556D01*
X150956Y133786D01*
X149061Y133001D01*
X148961Y132940D01*
X148861Y132880D01*
X148857Y132875D01*
X148852Y132872D01*
X148777Y132782D01*
X148701Y132693D01*
X148699Y132687D01*
X148695Y132682D01*
X148653Y132574D01*
X148609Y132465D01*
X148608Y132457D01*
X148607Y132453D01*
X148606Y132434D01*
X148591Y132298D01*
X147102Y130809D01*
X100548Y130809D01*
X99059Y132298D01*
X99059Y147102D01*
X100548Y148591D01*
X136706Y148591D01*
X136796Y148605D01*
X136887Y148613D01*
X136917Y148625D01*
X136949Y148630D01*
X137029Y148673D01*
X137113Y148709D01*
X137145Y148735D01*
X137166Y148746D01*
X137188Y148769D01*
X137244Y148814D01*
X139444Y151014D01*
X143179Y152561D01*
X147221Y152561D01*
X150956Y151014D01*
X151726Y150244D01*
X151800Y150191D01*
X151869Y150131D01*
X151899Y150119D01*
X151926Y150100D01*
X152012Y150073D01*
X152097Y150039D01*
X152138Y150035D01*
X152161Y150028D01*
X152193Y150029D01*
X152264Y150021D01*
X227416Y150021D01*
X230217Y148861D01*
X282334Y96744D01*
X282408Y96691D01*
X282477Y96631D01*
X282507Y96619D01*
X282533Y96600D01*
X282620Y96573D01*
X282705Y96539D01*
X282746Y96535D01*
X282768Y96528D01*
X282801Y96529D01*
X282872Y96521D01*
X288132Y96521D01*
X288246Y96539D01*
X288363Y96557D01*
X288368Y96559D01*
X288374Y96560D01*
X288477Y96615D01*
X288582Y96668D01*
X288586Y96673D01*
X288592Y96676D01*
X288672Y96760D01*
X288754Y96844D01*
X288758Y96850D01*
X288761Y96854D01*
X288769Y96871D01*
X288835Y96991D01*
X288986Y97356D01*
X291844Y100214D01*
X295579Y101761D01*
X299621Y101761D01*
X303356Y100214D01*
X306214Y97356D01*
X306365Y96991D01*
X306426Y96892D01*
X306487Y96791D01*
X306491Y96787D01*
X306495Y96782D01*
X306584Y96708D01*
X306673Y96631D01*
X306679Y96629D01*
X306684Y96625D01*
X306792Y96583D01*
X306902Y96539D01*
X306909Y96538D01*
X306914Y96537D01*
X306932Y96536D01*
X307068Y96521D01*
X314369Y96521D01*
X314481Y96539D01*
X314594Y96555D01*
X314602Y96559D01*
X314612Y96560D01*
X314712Y96613D01*
X314814Y96665D01*
X314822Y96672D01*
X314829Y96676D01*
X314845Y96693D01*
X314939Y96777D01*
X318676Y100996D01*
X325253Y103490D01*
X332237Y102642D01*
X338026Y98646D01*
X340194Y94516D01*
X340232Y94465D01*
X340262Y94409D01*
X340305Y94368D01*
X340342Y94319D01*
X340394Y94284D01*
X340440Y94240D01*
X340495Y94215D01*
X340545Y94180D01*
X340606Y94163D01*
X340663Y94136D01*
X340723Y94130D01*
X340782Y94113D01*
X340845Y94116D01*
X340907Y94109D01*
X340967Y94122D01*
X341027Y94125D01*
X341086Y94148D01*
X341148Y94162D01*
X341200Y94193D01*
X341256Y94215D01*
X341305Y94255D01*
X341359Y94288D01*
X341398Y94334D01*
X341445Y94373D01*
X341478Y94427D01*
X341519Y94475D01*
X341541Y94531D01*
X341573Y94583D01*
X341587Y94644D01*
X341611Y94703D01*
X341620Y94790D01*
X341628Y94822D01*
X341626Y94840D01*
X341629Y94870D01*
X341629Y160266D01*
X342789Y163067D01*
X357633Y177911D01*
X360434Y179071D01*
X386198Y179071D01*
X386218Y179074D01*
X386237Y179072D01*
X386339Y179094D01*
X386441Y179110D01*
X386458Y179120D01*
X386478Y179124D01*
X386567Y179177D01*
X386658Y179226D01*
X386672Y179240D01*
X386689Y179250D01*
X386756Y179329D01*
X386828Y179404D01*
X386836Y179422D01*
X386849Y179437D01*
X386888Y179533D01*
X386931Y179627D01*
X386933Y179647D01*
X386941Y179665D01*
X386943Y179686D01*
X388448Y181191D01*
X441352Y181191D01*
X442841Y179702D01*
X442841Y164898D01*
X441352Y163409D01*
X388448Y163409D01*
X388251Y163606D01*
X388177Y163659D01*
X388107Y163719D01*
X388077Y163731D01*
X388051Y163750D01*
X387964Y163777D01*
X387879Y163811D01*
X387838Y163815D01*
X387816Y163822D01*
X387784Y163821D01*
X387712Y163829D01*
X365422Y163829D01*
X365332Y163815D01*
X365241Y163807D01*
X365211Y163795D01*
X365179Y163790D01*
X365098Y163747D01*
X365015Y163711D01*
X364982Y163685D01*
X364962Y163674D01*
X364940Y163651D01*
X364884Y163606D01*
X357094Y155816D01*
X357041Y155742D01*
X356981Y155673D01*
X356969Y155643D01*
X356950Y155617D01*
X356923Y155530D01*
X356889Y155445D01*
X356885Y155404D01*
X356878Y155382D01*
X356879Y155349D01*
X356871Y155278D01*
X356871Y140886D01*
X356882Y140815D01*
X356884Y140743D01*
X356902Y140694D01*
X356910Y140643D01*
X356944Y140580D01*
X356969Y140512D01*
X357001Y140472D01*
X357026Y140426D01*
X357078Y140376D01*
X357122Y140320D01*
X357166Y140292D01*
X357204Y140256D01*
X357269Y140226D01*
X357329Y140187D01*
X357380Y140175D01*
X357427Y140153D01*
X357498Y140145D01*
X357568Y140127D01*
X357620Y140131D01*
X357671Y140126D01*
X357742Y140141D01*
X357813Y140146D01*
X357861Y140167D01*
X357912Y140178D01*
X357973Y140215D01*
X358039Y140243D01*
X358095Y140288D01*
X358123Y140304D01*
X358138Y140322D01*
X358170Y140348D01*
X368082Y150260D01*
X370333Y152511D01*
X373134Y153671D01*
X386198Y153671D01*
X386218Y153674D01*
X386237Y153672D01*
X386339Y153694D01*
X386441Y153710D01*
X386458Y153720D01*
X386478Y153724D01*
X386567Y153777D01*
X386658Y153826D01*
X386672Y153840D01*
X386689Y153850D01*
X386756Y153929D01*
X386828Y154004D01*
X386836Y154022D01*
X386849Y154037D01*
X386888Y154133D01*
X386931Y154227D01*
X386933Y154247D01*
X386941Y154265D01*
X386943Y154286D01*
X388448Y155791D01*
X441352Y155791D01*
X442841Y154302D01*
X442841Y139498D01*
X441352Y138009D01*
X388448Y138009D01*
X388251Y138206D01*
X388177Y138259D01*
X388107Y138319D01*
X388077Y138331D01*
X388051Y138350D01*
X387964Y138377D01*
X387879Y138411D01*
X387838Y138415D01*
X387816Y138422D01*
X387784Y138421D01*
X387712Y138429D01*
X378122Y138429D01*
X378032Y138415D01*
X377941Y138407D01*
X377911Y138395D01*
X377879Y138390D01*
X377798Y138347D01*
X377715Y138311D01*
X377682Y138285D01*
X377662Y138274D01*
X377640Y138251D01*
X377584Y138206D01*
X369794Y130416D01*
X369746Y130349D01*
X369743Y130346D01*
X369741Y130344D01*
X369741Y130342D01*
X369681Y130273D01*
X369669Y130243D01*
X369650Y130217D01*
X369623Y130130D01*
X369589Y130045D01*
X369585Y130004D01*
X369578Y129982D01*
X369579Y129949D01*
X369571Y129878D01*
X369571Y127566D01*
X369582Y127495D01*
X369584Y127423D01*
X369602Y127374D01*
X369610Y127323D01*
X369644Y127259D01*
X369669Y127192D01*
X369701Y127151D01*
X369726Y127105D01*
X369778Y127056D01*
X369822Y127000D01*
X369866Y126972D01*
X369904Y126936D01*
X369969Y126906D01*
X370029Y126867D01*
X370080Y126854D01*
X370127Y126832D01*
X370198Y126825D01*
X370268Y126807D01*
X370320Y126811D01*
X370371Y126805D01*
X370442Y126821D01*
X370513Y126826D01*
X370561Y126847D01*
X370612Y126858D01*
X370673Y126894D01*
X370739Y126922D01*
X370795Y126967D01*
X370823Y126984D01*
X370838Y127002D01*
X370870Y127027D01*
X374958Y131115D01*
X381000Y132734D01*
X387042Y131115D01*
X387569Y130588D01*
X387585Y130577D01*
X387598Y130561D01*
X387685Y130505D01*
X387768Y130445D01*
X387788Y130439D01*
X387805Y130428D01*
X387905Y130403D01*
X388003Y130372D01*
X388024Y130373D01*
X388043Y130368D01*
X388146Y130376D01*
X388249Y130379D01*
X388268Y130386D01*
X388288Y130387D01*
X388296Y130391D01*
X441352Y130391D01*
X442841Y128902D01*
X442841Y114098D01*
X441352Y112609D01*
X389782Y112609D01*
X389692Y112595D01*
X389601Y112587D01*
X389571Y112575D01*
X389539Y112570D01*
X389458Y112527D01*
X389374Y112491D01*
X389342Y112465D01*
X389322Y112454D01*
X389299Y112431D01*
X389243Y112386D01*
X387042Y110185D01*
X381445Y108685D01*
X381402Y108666D01*
X381355Y108655D01*
X381290Y108615D01*
X381221Y108584D01*
X381186Y108551D01*
X381145Y108526D01*
X381096Y108468D01*
X381041Y108417D01*
X381018Y108375D01*
X380987Y108338D01*
X380960Y108267D01*
X380923Y108201D01*
X380915Y108153D01*
X380898Y108109D01*
X380894Y108033D01*
X380881Y107958D01*
X380888Y107911D01*
X380886Y107863D01*
X380907Y107790D01*
X380918Y107715D01*
X380940Y107673D01*
X380953Y107626D01*
X380996Y107564D01*
X381031Y107496D01*
X381065Y107463D01*
X381092Y107424D01*
X381153Y107378D01*
X381207Y107325D01*
X381251Y107304D01*
X381289Y107276D01*
X381409Y107229D01*
X381429Y107219D01*
X381436Y107218D01*
X381445Y107215D01*
X387042Y105715D01*
X387569Y105188D01*
X387585Y105177D01*
X387598Y105161D01*
X387685Y105105D01*
X387768Y105045D01*
X387788Y105039D01*
X387805Y105028D01*
X387905Y105003D01*
X388003Y104972D01*
X388024Y104973D01*
X388043Y104968D01*
X388146Y104976D01*
X388249Y104979D01*
X388268Y104986D01*
X388288Y104987D01*
X388296Y104991D01*
X441352Y104991D01*
X442841Y103502D01*
X442841Y88698D01*
X441352Y87209D01*
X389782Y87209D01*
X389692Y87195D01*
X389601Y87187D01*
X389571Y87175D01*
X389539Y87170D01*
X389458Y87127D01*
X389374Y87091D01*
X389342Y87065D01*
X389322Y87054D01*
X389299Y87031D01*
X389243Y86986D01*
X387042Y84785D01*
X381000Y83166D01*
X374958Y84785D01*
X370870Y88873D01*
X370812Y88914D01*
X370760Y88964D01*
X370713Y88986D01*
X370671Y89016D01*
X370602Y89037D01*
X370537Y89068D01*
X370485Y89073D01*
X370435Y89089D01*
X370364Y89087D01*
X370293Y89095D01*
X370242Y89084D01*
X370190Y89082D01*
X370122Y89058D01*
X370052Y89042D01*
X370008Y89016D01*
X369959Y88998D01*
X369903Y88953D01*
X369841Y88916D01*
X369807Y88877D01*
X369767Y88844D01*
X369728Y88784D01*
X369681Y88729D01*
X369662Y88681D01*
X369634Y88637D01*
X369616Y88568D01*
X369589Y88501D01*
X369581Y88430D01*
X369573Y88399D01*
X369575Y88375D01*
X369571Y88334D01*
X369571Y60891D01*
X369582Y60820D01*
X369584Y60748D01*
X369602Y60699D01*
X369610Y60648D01*
X369644Y60584D01*
X369669Y60517D01*
X369701Y60476D01*
X369726Y60430D01*
X369778Y60381D01*
X369822Y60325D01*
X369866Y60297D01*
X369904Y60261D01*
X369969Y60231D01*
X370029Y60192D01*
X370080Y60179D01*
X370127Y60157D01*
X370198Y60150D01*
X370268Y60132D01*
X370320Y60136D01*
X370371Y60130D01*
X370442Y60146D01*
X370513Y60151D01*
X370561Y60172D01*
X370612Y60183D01*
X370673Y60219D01*
X370739Y60247D01*
X370795Y60292D01*
X370823Y60309D01*
X370838Y60327D01*
X370870Y60352D01*
X374958Y64440D01*
X381000Y66059D01*
X386001Y64719D01*
X386120Y64707D01*
X386237Y64694D01*
X386242Y64695D01*
X386246Y64695D01*
X386361Y64721D01*
X386478Y64746D01*
X386481Y64748D01*
X386486Y64749D01*
X386587Y64812D01*
X386689Y64873D01*
X386692Y64876D01*
X386695Y64878D01*
X386772Y64969D01*
X386849Y65059D01*
X386850Y65063D01*
X386853Y65067D01*
X386896Y65177D01*
X386941Y65288D01*
X386941Y65293D01*
X386943Y65296D01*
X386943Y65309D01*
X386959Y65454D01*
X386959Y78102D01*
X388448Y79591D01*
X441352Y79591D01*
X442841Y78102D01*
X442841Y63298D01*
X441352Y61809D01*
X391511Y61809D01*
X391440Y61798D01*
X391368Y61796D01*
X391319Y61778D01*
X391268Y61770D01*
X391205Y61736D01*
X391137Y61711D01*
X391096Y61679D01*
X391050Y61654D01*
X391001Y61603D01*
X390945Y61558D01*
X390917Y61514D01*
X390881Y61476D01*
X390851Y61411D01*
X390812Y61351D01*
X390799Y61300D01*
X390777Y61253D01*
X390770Y61182D01*
X390752Y61112D01*
X390756Y61060D01*
X390750Y61009D01*
X390766Y60938D01*
X390771Y60867D01*
X390792Y60819D01*
X390803Y60768D01*
X390839Y60707D01*
X390868Y60641D01*
X390912Y60585D01*
X390929Y60557D01*
X390947Y60542D01*
X390972Y60510D01*
X391465Y60017D01*
X392216Y57215D01*
X392234Y57175D01*
X392243Y57132D01*
X392284Y57064D01*
X392317Y56991D01*
X392347Y56959D01*
X392369Y56921D01*
X392430Y56869D01*
X392484Y56811D01*
X392523Y56790D01*
X392556Y56761D01*
X392630Y56731D01*
X392701Y56693D01*
X392744Y56686D01*
X392784Y56669D01*
X392929Y56653D01*
X392943Y56651D01*
X392946Y56651D01*
X392951Y56651D01*
X395777Y56651D01*
X395777Y52912D01*
X395780Y52892D01*
X395778Y52873D01*
X395800Y52771D01*
X395817Y52669D01*
X395826Y52652D01*
X395830Y52632D01*
X395883Y52543D01*
X395932Y52452D01*
X395946Y52438D01*
X395956Y52421D01*
X396035Y52354D01*
X396110Y52283D01*
X396128Y52274D01*
X396143Y52261D01*
X396239Y52222D01*
X396333Y52179D01*
X396353Y52177D01*
X396371Y52169D01*
X396538Y52151D01*
X397301Y52151D01*
X397301Y52149D01*
X396538Y52149D01*
X396518Y52146D01*
X396499Y52148D01*
X396397Y52126D01*
X396295Y52109D01*
X396278Y52100D01*
X396258Y52096D01*
X396169Y52043D01*
X396078Y51994D01*
X396064Y51980D01*
X396047Y51970D01*
X395980Y51891D01*
X395909Y51816D01*
X395900Y51798D01*
X395887Y51783D01*
X395848Y51687D01*
X395805Y51593D01*
X395803Y51573D01*
X395795Y51555D01*
X395777Y51388D01*
X395777Y47649D01*
X392300Y47649D01*
X392279Y47670D01*
X392263Y47682D01*
X392250Y47697D01*
X392163Y47753D01*
X392079Y47814D01*
X392060Y47820D01*
X392043Y47830D01*
X391943Y47856D01*
X391844Y47886D01*
X391824Y47886D01*
X391805Y47890D01*
X391702Y47882D01*
X391598Y47880D01*
X391579Y47873D01*
X391560Y47871D01*
X391464Y47831D01*
X391367Y47795D01*
X391352Y47783D01*
X391333Y47775D01*
X391202Y47670D01*
X389144Y45612D01*
X389091Y45538D01*
X389031Y45468D01*
X389019Y45438D01*
X389000Y45412D01*
X388973Y45325D01*
X388939Y45240D01*
X388935Y45199D01*
X388928Y45177D01*
X388929Y45145D01*
X388921Y45073D01*
X388921Y9634D01*
X388899Y9581D01*
X388884Y9517D01*
X388859Y9456D01*
X388850Y9373D01*
X388843Y9341D01*
X388844Y9322D01*
X388841Y9290D01*
X388841Y5598D01*
X387352Y4109D01*
X384368Y4109D01*
X384303Y4099D01*
X384237Y4098D01*
X384157Y4075D01*
X384125Y4070D01*
X384108Y4060D01*
X384076Y4051D01*
X382816Y3529D01*
X361984Y3529D01*
G37*
%LPD*%
%LPC*%
G36*
X297398Y54609D02*
X297398Y54609D01*
X296191Y55816D01*
X296117Y55869D01*
X296047Y55929D01*
X296017Y55941D01*
X295991Y55960D01*
X295904Y55987D01*
X295819Y56021D01*
X295778Y56025D01*
X295756Y56032D01*
X295724Y56031D01*
X295652Y56039D01*
X295579Y56039D01*
X291844Y57586D01*
X291074Y58356D01*
X291000Y58409D01*
X290931Y58469D01*
X290901Y58481D01*
X290874Y58500D01*
X290788Y58527D01*
X290703Y58561D01*
X290662Y58565D01*
X290639Y58572D01*
X290607Y58571D01*
X290536Y58579D01*
X275184Y58579D01*
X272383Y59739D01*
X244716Y87406D01*
X244642Y87459D01*
X244573Y87519D01*
X244543Y87531D01*
X244517Y87550D01*
X244430Y87577D01*
X244345Y87611D01*
X244304Y87615D01*
X244282Y87622D01*
X244249Y87621D01*
X244178Y87629D01*
X155062Y87629D01*
X154947Y87610D01*
X154831Y87593D01*
X154825Y87591D01*
X154819Y87590D01*
X154716Y87535D01*
X154612Y87482D01*
X154607Y87477D01*
X154602Y87474D01*
X154521Y87390D01*
X154439Y87306D01*
X154436Y87300D01*
X154432Y87296D01*
X154425Y87279D01*
X154359Y87159D01*
X153814Y85844D01*
X150956Y82986D01*
X147221Y81439D01*
X143179Y81439D01*
X139444Y82986D01*
X136586Y85844D01*
X136041Y87159D01*
X135980Y87259D01*
X135920Y87359D01*
X135915Y87363D01*
X135912Y87368D01*
X135822Y87443D01*
X135733Y87519D01*
X135727Y87521D01*
X135722Y87525D01*
X135614Y87567D01*
X135505Y87611D01*
X135497Y87612D01*
X135493Y87613D01*
X135474Y87614D01*
X135338Y87629D01*
X103259Y87629D01*
X100458Y88789D01*
X9589Y179658D01*
X8429Y182459D01*
X8429Y228156D01*
X8415Y228246D01*
X8407Y228337D01*
X8395Y228367D01*
X8390Y228399D01*
X8347Y228480D01*
X8311Y228564D01*
X8285Y228596D01*
X8274Y228616D01*
X8251Y228639D01*
X8206Y228695D01*
X8175Y228726D01*
X8175Y252674D01*
X9664Y254163D01*
X22436Y254163D01*
X23925Y252674D01*
X23925Y228726D01*
X23894Y228695D01*
X23841Y228621D01*
X23781Y228551D01*
X23769Y228521D01*
X23750Y228495D01*
X23723Y228408D01*
X23689Y228323D01*
X23685Y228282D01*
X23678Y228260D01*
X23679Y228228D01*
X23671Y228156D01*
X23671Y206082D01*
X23674Y206062D01*
X23672Y206043D01*
X23694Y205941D01*
X23710Y205839D01*
X23720Y205822D01*
X23724Y205802D01*
X23777Y205713D01*
X23826Y205622D01*
X23840Y205608D01*
X23850Y205591D01*
X23929Y205524D01*
X24004Y205452D01*
X24022Y205444D01*
X24037Y205431D01*
X24133Y205392D01*
X24227Y205349D01*
X24247Y205347D01*
X24265Y205339D01*
X24432Y205321D01*
X386862Y205321D01*
X386952Y205335D01*
X387043Y205343D01*
X387073Y205355D01*
X387105Y205360D01*
X387186Y205403D01*
X387270Y205439D01*
X387302Y205465D01*
X387322Y205476D01*
X387345Y205499D01*
X387401Y205544D01*
X388448Y206591D01*
X441352Y206591D01*
X442841Y205102D01*
X442841Y190298D01*
X441352Y188809D01*
X388448Y188809D01*
X387401Y189856D01*
X387327Y189909D01*
X387257Y189969D01*
X387227Y189981D01*
X387201Y190000D01*
X387114Y190027D01*
X387029Y190061D01*
X386988Y190065D01*
X386966Y190072D01*
X386934Y190071D01*
X386862Y190079D01*
X307814Y190079D01*
X307699Y190060D01*
X307583Y190043D01*
X307577Y190041D01*
X307571Y190040D01*
X307469Y189985D01*
X307364Y189932D01*
X307359Y189927D01*
X307354Y189924D01*
X307274Y189840D01*
X307191Y189756D01*
X307188Y189750D01*
X307184Y189746D01*
X307177Y189729D01*
X307111Y189609D01*
X306214Y187444D01*
X303356Y184586D01*
X299621Y183039D01*
X295579Y183039D01*
X291844Y184586D01*
X288986Y187444D01*
X288089Y189609D01*
X288028Y189709D01*
X287968Y189809D01*
X287963Y189813D01*
X287960Y189818D01*
X287870Y189893D01*
X287781Y189969D01*
X287775Y189971D01*
X287770Y189975D01*
X287662Y190017D01*
X287553Y190061D01*
X287545Y190062D01*
X287541Y190063D01*
X287522Y190064D01*
X287386Y190079D01*
X155414Y190079D01*
X155299Y190060D01*
X155183Y190043D01*
X155177Y190041D01*
X155171Y190040D01*
X155069Y189985D01*
X154964Y189932D01*
X154959Y189927D01*
X154954Y189924D01*
X154874Y189840D01*
X154791Y189756D01*
X154788Y189750D01*
X154784Y189746D01*
X154777Y189729D01*
X154711Y189609D01*
X153814Y187444D01*
X150956Y184586D01*
X147221Y183039D01*
X143179Y183039D01*
X139444Y184586D01*
X136586Y187444D01*
X135689Y189609D01*
X135628Y189709D01*
X135568Y189809D01*
X135563Y189813D01*
X135560Y189818D01*
X135470Y189893D01*
X135381Y189969D01*
X135375Y189971D01*
X135370Y189975D01*
X135262Y190017D01*
X135153Y190061D01*
X135145Y190062D01*
X135141Y190063D01*
X135122Y190064D01*
X134986Y190079D01*
X24432Y190079D01*
X24412Y190076D01*
X24393Y190078D01*
X24291Y190056D01*
X24189Y190040D01*
X24172Y190030D01*
X24152Y190026D01*
X24063Y189973D01*
X23972Y189924D01*
X23958Y189910D01*
X23941Y189900D01*
X23874Y189821D01*
X23802Y189746D01*
X23794Y189728D01*
X23781Y189713D01*
X23742Y189617D01*
X23699Y189523D01*
X23697Y189503D01*
X23689Y189485D01*
X23671Y189318D01*
X23671Y187447D01*
X23685Y187357D01*
X23693Y187266D01*
X23705Y187236D01*
X23710Y187204D01*
X23753Y187123D01*
X23789Y187040D01*
X23815Y187007D01*
X23826Y186987D01*
X23849Y186965D01*
X23894Y186909D01*
X107709Y103094D01*
X107783Y103041D01*
X107852Y102981D01*
X107882Y102969D01*
X107908Y102950D01*
X107995Y102923D01*
X108080Y102889D01*
X108121Y102885D01*
X108143Y102878D01*
X108176Y102879D01*
X108247Y102871D01*
X249166Y102871D01*
X251967Y101711D01*
X254217Y99460D01*
X254218Y99460D01*
X279634Y74044D01*
X279708Y73991D01*
X279777Y73931D01*
X279807Y73919D01*
X279833Y73900D01*
X279920Y73873D01*
X280005Y73839D01*
X280046Y73835D01*
X280068Y73828D01*
X280101Y73829D01*
X280172Y73821D01*
X290536Y73821D01*
X290626Y73835D01*
X290717Y73843D01*
X290747Y73855D01*
X290779Y73860D01*
X290859Y73903D01*
X290943Y73939D01*
X290975Y73965D01*
X290996Y73976D01*
X291018Y73999D01*
X291074Y74044D01*
X291844Y74814D01*
X295579Y76361D01*
X299621Y76361D01*
X303356Y74814D01*
X305556Y72614D01*
X305630Y72561D01*
X305699Y72501D01*
X305729Y72489D01*
X305756Y72470D01*
X305842Y72443D01*
X305927Y72409D01*
X305968Y72405D01*
X305991Y72398D01*
X306023Y72399D01*
X306094Y72391D01*
X337602Y72391D01*
X339091Y70902D01*
X339091Y56098D01*
X337602Y54609D01*
X297398Y54609D01*
G37*
%LPD*%
%LPC*%
G36*
X297398Y207009D02*
X297398Y207009D01*
X296351Y208056D01*
X296277Y208109D01*
X296207Y208169D01*
X296177Y208181D01*
X296151Y208200D01*
X296064Y208227D01*
X295979Y208261D01*
X295938Y208265D01*
X295916Y208272D01*
X295884Y208271D01*
X295812Y208279D01*
X49284Y208279D01*
X46483Y209439D01*
X34989Y220933D01*
X33829Y223734D01*
X33829Y228156D01*
X33815Y228246D01*
X33807Y228337D01*
X33795Y228367D01*
X33790Y228399D01*
X33747Y228480D01*
X33711Y228564D01*
X33685Y228596D01*
X33674Y228616D01*
X33651Y228639D01*
X33606Y228695D01*
X33575Y228726D01*
X33575Y252674D01*
X35064Y254163D01*
X47836Y254163D01*
X49325Y252674D01*
X49325Y228468D01*
X49339Y228378D01*
X49347Y228287D01*
X49359Y228257D01*
X49364Y228225D01*
X49407Y228144D01*
X49443Y228061D01*
X49469Y228028D01*
X49480Y228008D01*
X49503Y227986D01*
X49548Y227930D01*
X53734Y223744D01*
X53808Y223691D01*
X53877Y223631D01*
X53907Y223619D01*
X53933Y223600D01*
X54021Y223573D01*
X54105Y223539D01*
X54146Y223535D01*
X54168Y223528D01*
X54201Y223529D01*
X54272Y223521D01*
X135732Y223521D01*
X135846Y223539D01*
X135963Y223557D01*
X135968Y223559D01*
X135974Y223560D01*
X136077Y223615D01*
X136182Y223668D01*
X136186Y223673D01*
X136192Y223676D01*
X136272Y223760D01*
X136354Y223844D01*
X136358Y223850D01*
X136361Y223854D01*
X136369Y223871D01*
X136435Y223991D01*
X136586Y224356D01*
X139444Y227214D01*
X143179Y228761D01*
X147221Y228761D01*
X150956Y227214D01*
X153814Y224356D01*
X153965Y223991D01*
X154026Y223892D01*
X154087Y223791D01*
X154091Y223787D01*
X154095Y223782D01*
X154184Y223708D01*
X154273Y223631D01*
X154279Y223629D01*
X154284Y223625D01*
X154392Y223583D01*
X154502Y223539D01*
X154509Y223538D01*
X154514Y223537D01*
X154532Y223536D01*
X154668Y223521D01*
X288132Y223521D01*
X288246Y223539D01*
X288363Y223557D01*
X288368Y223559D01*
X288374Y223560D01*
X288477Y223615D01*
X288582Y223668D01*
X288586Y223673D01*
X288592Y223676D01*
X288672Y223760D01*
X288754Y223844D01*
X288758Y223850D01*
X288761Y223854D01*
X288769Y223871D01*
X288835Y223991D01*
X288986Y224356D01*
X291844Y227214D01*
X295579Y228761D01*
X299621Y228761D01*
X303356Y227214D01*
X305556Y225014D01*
X305630Y224961D01*
X305699Y224901D01*
X305729Y224889D01*
X305755Y224870D01*
X305842Y224843D01*
X305927Y224809D01*
X305968Y224805D01*
X305991Y224798D01*
X306023Y224799D01*
X306094Y224791D01*
X337602Y224791D01*
X339091Y223302D01*
X339091Y208498D01*
X337602Y207009D01*
X297398Y207009D01*
G37*
%LPD*%
%LPC*%
G36*
X60464Y227237D02*
X60464Y227237D01*
X58975Y228726D01*
X58975Y252674D01*
X59962Y253661D01*
X60000Y253714D01*
X60046Y253761D01*
X60086Y253834D01*
X60105Y253861D01*
X60111Y253879D01*
X60127Y253908D01*
X60389Y254542D01*
X62640Y256793D01*
X79457Y273610D01*
X81708Y275861D01*
X84509Y277021D01*
X138136Y277021D01*
X138226Y277035D01*
X138317Y277043D01*
X138347Y277055D01*
X138379Y277060D01*
X138459Y277103D01*
X138543Y277139D01*
X138575Y277165D01*
X138596Y277176D01*
X138618Y277199D01*
X138674Y277244D01*
X139444Y278014D01*
X143179Y279561D01*
X147221Y279561D01*
X150956Y278014D01*
X151726Y277244D01*
X151800Y277191D01*
X151869Y277131D01*
X151899Y277119D01*
X151926Y277100D01*
X152012Y277073D01*
X152097Y277039D01*
X152138Y277035D01*
X152161Y277028D01*
X152193Y277029D01*
X152264Y277021D01*
X270541Y277021D01*
X273342Y275861D01*
X275593Y273610D01*
X294839Y254363D01*
X294933Y254295D01*
X295028Y254225D01*
X295034Y254223D01*
X295039Y254219D01*
X295150Y254185D01*
X295262Y254149D01*
X295268Y254149D01*
X295274Y254147D01*
X295391Y254150D01*
X295508Y254151D01*
X295515Y254153D01*
X295520Y254153D01*
X295537Y254160D01*
X295540Y254161D01*
X299621Y254161D01*
X303356Y252614D01*
X305556Y250414D01*
X305630Y250361D01*
X305699Y250301D01*
X305729Y250289D01*
X305756Y250270D01*
X305842Y250243D01*
X305927Y250209D01*
X305968Y250205D01*
X305991Y250198D01*
X306023Y250199D01*
X306094Y250191D01*
X337602Y250191D01*
X339091Y248702D01*
X339091Y233898D01*
X337602Y232409D01*
X297398Y232409D01*
X296191Y233616D01*
X296117Y233669D01*
X296047Y233729D01*
X296017Y233741D01*
X295991Y233760D01*
X295904Y233787D01*
X295819Y233821D01*
X295778Y233825D01*
X295756Y233832D01*
X295724Y233831D01*
X295652Y233839D01*
X295579Y233839D01*
X291844Y235386D01*
X288986Y238244D01*
X288749Y238817D01*
X288715Y238872D01*
X288689Y238933D01*
X288637Y238997D01*
X288620Y239026D01*
X288605Y239038D01*
X288584Y239064D01*
X266091Y261556D01*
X266017Y261609D01*
X265948Y261669D01*
X265918Y261681D01*
X265892Y261700D01*
X265805Y261727D01*
X265720Y261761D01*
X265679Y261765D01*
X265657Y261772D01*
X265624Y261771D01*
X265553Y261779D01*
X152264Y261779D01*
X152174Y261765D01*
X152083Y261757D01*
X152053Y261745D01*
X152021Y261740D01*
X151941Y261697D01*
X151857Y261661D01*
X151825Y261635D01*
X151804Y261624D01*
X151782Y261601D01*
X151726Y261556D01*
X150956Y260786D01*
X147221Y259239D01*
X143179Y259239D01*
X139444Y260786D01*
X138674Y261556D01*
X138600Y261609D01*
X138531Y261669D01*
X138501Y261681D01*
X138474Y261700D01*
X138388Y261727D01*
X138303Y261761D01*
X138262Y261765D01*
X138239Y261772D01*
X138207Y261771D01*
X138136Y261779D01*
X89497Y261779D01*
X89407Y261765D01*
X89316Y261757D01*
X89286Y261745D01*
X89254Y261740D01*
X89173Y261697D01*
X89090Y261661D01*
X89057Y261635D01*
X89037Y261624D01*
X89015Y261601D01*
X88959Y261556D01*
X74948Y247545D01*
X74895Y247471D01*
X74835Y247402D01*
X74823Y247372D01*
X74804Y247346D01*
X74777Y247259D01*
X74743Y247174D01*
X74739Y247133D01*
X74732Y247111D01*
X74733Y247078D01*
X74725Y247007D01*
X74725Y228726D01*
X73236Y227237D01*
X60464Y227237D01*
G37*
%LPD*%
%LPC*%
G36*
X100548Y156209D02*
X100548Y156209D01*
X99059Y157698D01*
X99059Y172502D01*
X100548Y173991D01*
X136706Y173991D01*
X136796Y174005D01*
X136887Y174013D01*
X136917Y174025D01*
X136949Y174030D01*
X137029Y174073D01*
X137113Y174109D01*
X137145Y174135D01*
X137166Y174146D01*
X137188Y174169D01*
X137244Y174214D01*
X139444Y176414D01*
X143179Y177961D01*
X147221Y177961D01*
X150956Y176414D01*
X151726Y175644D01*
X151800Y175591D01*
X151869Y175531D01*
X151899Y175519D01*
X151926Y175500D01*
X152012Y175473D01*
X152097Y175439D01*
X152138Y175435D01*
X152161Y175428D01*
X152193Y175429D01*
X152264Y175421D01*
X290536Y175421D01*
X290626Y175435D01*
X290717Y175443D01*
X290747Y175455D01*
X290779Y175460D01*
X290859Y175503D01*
X290943Y175539D01*
X290975Y175565D01*
X290996Y175576D01*
X291018Y175599D01*
X291074Y175644D01*
X291844Y176414D01*
X295579Y177961D01*
X299621Y177961D01*
X303356Y176414D01*
X304126Y175644D01*
X304200Y175591D01*
X304269Y175531D01*
X304299Y175519D01*
X304325Y175500D01*
X304412Y175473D01*
X304497Y175439D01*
X304538Y175435D01*
X304561Y175428D01*
X304593Y175429D01*
X304664Y175421D01*
X315421Y175421D01*
X315464Y175428D01*
X315508Y175426D01*
X315585Y175448D01*
X315664Y175460D01*
X315702Y175481D01*
X315744Y175493D01*
X315810Y175538D01*
X315881Y175576D01*
X315911Y175607D01*
X315947Y175632D01*
X315995Y175696D01*
X316050Y175754D01*
X316069Y175794D01*
X316095Y175829D01*
X316148Y175965D01*
X316154Y175977D01*
X316154Y175980D01*
X316156Y175985D01*
X316560Y177492D01*
X320983Y181915D01*
X327025Y183534D01*
X333067Y181915D01*
X337490Y177492D01*
X339109Y171450D01*
X337490Y165408D01*
X333067Y160985D01*
X327025Y159366D01*
X324087Y160153D01*
X324071Y160155D01*
X324056Y160161D01*
X323890Y160179D01*
X304664Y160179D01*
X304574Y160165D01*
X304483Y160157D01*
X304453Y160145D01*
X304421Y160140D01*
X304341Y160097D01*
X304257Y160061D01*
X304225Y160035D01*
X304204Y160024D01*
X304182Y160001D01*
X304126Y159956D01*
X303356Y159186D01*
X299621Y157639D01*
X295579Y157639D01*
X291844Y159186D01*
X291074Y159956D01*
X291000Y160009D01*
X290931Y160069D01*
X290901Y160081D01*
X290875Y160100D01*
X290788Y160127D01*
X290703Y160161D01*
X290662Y160165D01*
X290639Y160172D01*
X290607Y160171D01*
X290536Y160179D01*
X152264Y160179D01*
X152174Y160165D01*
X152083Y160157D01*
X152053Y160145D01*
X152021Y160140D01*
X151941Y160097D01*
X151857Y160061D01*
X151825Y160035D01*
X151804Y160024D01*
X151782Y160001D01*
X151726Y159956D01*
X150956Y159186D01*
X149061Y158401D01*
X148961Y158340D01*
X148861Y158280D01*
X148857Y158275D01*
X148852Y158272D01*
X148777Y158182D01*
X148701Y158093D01*
X148699Y158087D01*
X148695Y158082D01*
X148653Y157974D01*
X148609Y157865D01*
X148608Y157857D01*
X148607Y157853D01*
X148606Y157834D01*
X148591Y157698D01*
X147102Y156209D01*
X100548Y156209D01*
G37*
%LPD*%
%LPC*%
G36*
X80734Y4779D02*
X80734Y4779D01*
X79474Y5301D01*
X79410Y5316D01*
X79349Y5341D01*
X79266Y5350D01*
X79234Y5357D01*
X79215Y5356D01*
X79183Y5359D01*
X76198Y5359D01*
X74709Y6848D01*
X74709Y10540D01*
X74699Y10604D01*
X74698Y10670D01*
X74675Y10750D01*
X74670Y10782D01*
X74660Y10800D01*
X74651Y10831D01*
X74629Y10884D01*
X74629Y13916D01*
X74651Y13969D01*
X74659Y14002D01*
X74660Y14003D01*
X74660Y14005D01*
X74666Y14033D01*
X74691Y14094D01*
X74700Y14176D01*
X74707Y14208D01*
X74706Y14228D01*
X74709Y14260D01*
X74709Y17952D01*
X76198Y19441D01*
X78198Y19441D01*
X78288Y19455D01*
X78379Y19463D01*
X78409Y19475D01*
X78441Y19480D01*
X78521Y19523D01*
X78605Y19559D01*
X78638Y19585D01*
X78658Y19596D01*
X78680Y19619D01*
X78736Y19664D01*
X81108Y22036D01*
X83909Y23196D01*
X132753Y23196D01*
X132843Y23210D01*
X132934Y23218D01*
X132964Y23230D01*
X132996Y23235D01*
X133077Y23278D01*
X133160Y23314D01*
X133193Y23340D01*
X133213Y23351D01*
X133235Y23374D01*
X133291Y23419D01*
X137356Y27484D01*
X137409Y27558D01*
X137469Y27627D01*
X137481Y27657D01*
X137500Y27683D01*
X137527Y27770D01*
X137561Y27855D01*
X137565Y27896D01*
X137572Y27918D01*
X137571Y27951D01*
X137579Y28022D01*
X137579Y28448D01*
X137576Y28468D01*
X137578Y28487D01*
X137556Y28589D01*
X137540Y28691D01*
X137530Y28708D01*
X137526Y28728D01*
X137473Y28817D01*
X137424Y28908D01*
X137410Y28922D01*
X137400Y28939D01*
X137321Y29006D01*
X137246Y29078D01*
X137228Y29086D01*
X137213Y29099D01*
X137117Y29138D01*
X137023Y29181D01*
X137003Y29183D01*
X136985Y29191D01*
X136818Y29209D01*
X100548Y29209D01*
X99059Y30698D01*
X99059Y48677D01*
X100548Y50166D01*
X141108Y50166D01*
X141173Y50176D01*
X141238Y50177D01*
X141318Y50200D01*
X141351Y50205D01*
X141368Y50215D01*
X141400Y50224D01*
X143179Y50961D01*
X147221Y50961D01*
X150956Y49414D01*
X153814Y46556D01*
X155361Y42821D01*
X155361Y38779D01*
X153814Y35044D01*
X153044Y34274D01*
X152991Y34200D01*
X152931Y34131D01*
X152919Y34101D01*
X152900Y34075D01*
X152873Y33988D01*
X152839Y33903D01*
X152835Y33862D01*
X152828Y33839D01*
X152829Y33807D01*
X152821Y33736D01*
X152821Y23034D01*
X151661Y20233D01*
X140542Y9114D01*
X137741Y7954D01*
X90552Y7954D01*
X90532Y7951D01*
X90513Y7953D01*
X90411Y7931D01*
X90309Y7915D01*
X90292Y7905D01*
X90272Y7901D01*
X90183Y7848D01*
X90092Y7799D01*
X90078Y7785D01*
X90061Y7775D01*
X89994Y7696D01*
X89922Y7621D01*
X89914Y7603D01*
X89901Y7588D01*
X89862Y7492D01*
X89819Y7398D01*
X89817Y7378D01*
X89809Y7360D01*
X89791Y7193D01*
X89791Y6848D01*
X88302Y5359D01*
X85317Y5359D01*
X85253Y5349D01*
X85187Y5348D01*
X85107Y5325D01*
X85075Y5320D01*
X85058Y5310D01*
X85026Y5301D01*
X83766Y4779D01*
X80734Y4779D01*
G37*
%LPD*%
%LPC*%
G36*
X346179Y256919D02*
X346179Y256919D01*
X342444Y258466D01*
X339586Y261324D01*
X338039Y265059D01*
X338039Y273768D01*
X338025Y273858D01*
X338017Y273949D01*
X338005Y273979D01*
X338000Y274011D01*
X337957Y274092D01*
X337921Y274175D01*
X337895Y274208D01*
X337884Y274228D01*
X337861Y274250D01*
X337834Y274284D01*
X337833Y274285D01*
X337832Y274286D01*
X337816Y274306D01*
X303736Y308386D01*
X303662Y308439D01*
X303593Y308499D01*
X303563Y308511D01*
X303537Y308530D01*
X303450Y308557D01*
X303365Y308591D01*
X303324Y308595D01*
X303302Y308602D01*
X303269Y308601D01*
X303198Y308609D01*
X297398Y308609D01*
X296191Y309816D01*
X296117Y309869D01*
X296047Y309929D01*
X296017Y309941D01*
X295991Y309960D01*
X295904Y309987D01*
X295819Y310021D01*
X295778Y310025D01*
X295756Y310032D01*
X295724Y310031D01*
X295652Y310039D01*
X295579Y310039D01*
X291844Y311586D01*
X288986Y314444D01*
X287439Y318179D01*
X287439Y322221D01*
X288986Y325956D01*
X291844Y328814D01*
X295579Y330361D01*
X299621Y330361D01*
X303356Y328814D01*
X304336Y327834D01*
X304389Y327796D01*
X304436Y327750D01*
X304509Y327710D01*
X304535Y327690D01*
X304554Y327685D01*
X304583Y327669D01*
X307017Y326661D01*
X307064Y326614D01*
X307138Y326561D01*
X307207Y326501D01*
X307237Y326489D01*
X307263Y326470D01*
X307350Y326443D01*
X307435Y326409D01*
X307476Y326405D01*
X307498Y326398D01*
X307531Y326399D01*
X307602Y326391D01*
X337602Y326391D01*
X339091Y324902D01*
X339091Y310098D01*
X337602Y308609D01*
X326906Y308609D01*
X326835Y308598D01*
X326763Y308596D01*
X326714Y308578D01*
X326663Y308570D01*
X326600Y308536D01*
X326532Y308511D01*
X326492Y308479D01*
X326446Y308454D01*
X326396Y308403D01*
X326340Y308358D01*
X326312Y308314D01*
X326276Y308276D01*
X326246Y308211D01*
X326207Y308151D01*
X326195Y308100D01*
X326173Y308053D01*
X326165Y307982D01*
X326147Y307912D01*
X326151Y307860D01*
X326146Y307809D01*
X326161Y307738D01*
X326166Y307667D01*
X326187Y307619D01*
X326198Y307568D01*
X326235Y307507D01*
X326263Y307441D01*
X326308Y307385D01*
X326324Y307357D01*
X326342Y307342D01*
X326368Y307310D01*
X342296Y291381D01*
X342390Y291314D01*
X342485Y291243D01*
X342491Y291241D01*
X342496Y291238D01*
X342607Y291203D01*
X342719Y291167D01*
X342725Y291167D01*
X342731Y291165D01*
X342848Y291168D01*
X342965Y291169D01*
X342972Y291171D01*
X342977Y291172D01*
X342994Y291178D01*
X343126Y291216D01*
X346179Y292481D01*
X350221Y292481D01*
X353956Y290934D01*
X356814Y288076D01*
X358361Y284341D01*
X358361Y265059D01*
X356814Y261324D01*
X353956Y258466D01*
X350221Y256919D01*
X346179Y256919D01*
G37*
%LPD*%
%LPC*%
G36*
X100548Y308609D02*
X100548Y308609D01*
X99059Y310098D01*
X99059Y324902D01*
X100548Y326391D01*
X140517Y326391D01*
X140534Y326393D01*
X140551Y326391D01*
X140655Y326413D01*
X140760Y326430D01*
X140775Y326438D01*
X140791Y326442D01*
X140940Y326519D01*
X141590Y326953D01*
X142977Y327528D01*
X143677Y327667D01*
X143677Y327152D01*
X143680Y327132D01*
X143678Y327113D01*
X143700Y327011D01*
X143717Y326909D01*
X143726Y326892D01*
X143730Y326872D01*
X143783Y326783D01*
X143832Y326692D01*
X143846Y326678D01*
X143856Y326661D01*
X143935Y326594D01*
X144010Y326522D01*
X144028Y326514D01*
X144043Y326501D01*
X144139Y326462D01*
X144233Y326419D01*
X144253Y326417D01*
X144271Y326409D01*
X144438Y326391D01*
X145962Y326391D01*
X145982Y326394D01*
X146001Y326392D01*
X146103Y326414D01*
X146205Y326430D01*
X146222Y326440D01*
X146242Y326444D01*
X146331Y326497D01*
X146422Y326546D01*
X146436Y326560D01*
X146453Y326570D01*
X146520Y326649D01*
X146591Y326724D01*
X146600Y326742D01*
X146613Y326757D01*
X146652Y326853D01*
X146695Y326947D01*
X146697Y326967D01*
X146705Y326985D01*
X146723Y327152D01*
X146723Y327667D01*
X147423Y327528D01*
X148810Y326953D01*
X149460Y326519D01*
X149475Y326512D01*
X149488Y326501D01*
X149587Y326461D01*
X149684Y326417D01*
X149700Y326415D01*
X149716Y326409D01*
X149883Y326391D01*
X153452Y326391D01*
X154941Y324902D01*
X154941Y310098D01*
X153452Y308609D01*
X100548Y308609D01*
G37*
%LPD*%
%LPC*%
G36*
X297398Y105409D02*
X297398Y105409D01*
X296191Y106616D01*
X296117Y106669D01*
X296047Y106729D01*
X296017Y106741D01*
X295991Y106760D01*
X295904Y106787D01*
X295819Y106821D01*
X295778Y106825D01*
X295756Y106832D01*
X295724Y106831D01*
X295652Y106839D01*
X295579Y106839D01*
X291844Y108386D01*
X288986Y111244D01*
X287439Y114979D01*
X287439Y119021D01*
X288986Y122756D01*
X291844Y125614D01*
X295579Y127161D01*
X299621Y127161D01*
X303356Y125614D01*
X305556Y123414D01*
X305630Y123361D01*
X305699Y123301D01*
X305729Y123289D01*
X305756Y123270D01*
X305842Y123243D01*
X305927Y123209D01*
X305968Y123205D01*
X305991Y123198D01*
X306023Y123199D01*
X306094Y123191D01*
X337602Y123191D01*
X339091Y121702D01*
X339091Y106898D01*
X337602Y105409D01*
X297398Y105409D01*
G37*
%LPD*%
%LPC*%
G36*
X297398Y130809D02*
X297398Y130809D01*
X296191Y132016D01*
X296117Y132069D01*
X296047Y132129D01*
X296017Y132141D01*
X295991Y132160D01*
X295904Y132187D01*
X295819Y132221D01*
X295778Y132225D01*
X295756Y132232D01*
X295724Y132231D01*
X295652Y132239D01*
X295579Y132239D01*
X291844Y133786D01*
X288986Y136644D01*
X287439Y140379D01*
X287439Y144421D01*
X288986Y148156D01*
X291844Y151014D01*
X295579Y152561D01*
X299621Y152561D01*
X303356Y151014D01*
X305556Y148814D01*
X305630Y148761D01*
X305699Y148701D01*
X305729Y148689D01*
X305756Y148670D01*
X305842Y148643D01*
X305927Y148609D01*
X305968Y148605D01*
X305991Y148598D01*
X306023Y148599D01*
X306094Y148591D01*
X337602Y148591D01*
X339091Y147102D01*
X339091Y132298D01*
X337602Y130809D01*
X297398Y130809D01*
G37*
%LPD*%
%LPC*%
G36*
X143179Y360839D02*
X143179Y360839D01*
X139444Y362386D01*
X136586Y365244D01*
X135039Y368979D01*
X135039Y373021D01*
X136586Y376756D01*
X139444Y379614D01*
X143179Y381161D01*
X147221Y381161D01*
X150956Y379614D01*
X153814Y376756D01*
X155361Y373021D01*
X155361Y368979D01*
X153814Y365244D01*
X150956Y362386D01*
X147221Y360839D01*
X143179Y360839D01*
G37*
%LPD*%
%LPC*%
G36*
X143179Y284639D02*
X143179Y284639D01*
X139444Y286186D01*
X136586Y289044D01*
X135039Y292779D01*
X135039Y296821D01*
X136586Y300556D01*
X139444Y303414D01*
X143179Y304961D01*
X147221Y304961D01*
X150956Y303414D01*
X153814Y300556D01*
X155361Y296821D01*
X155361Y292779D01*
X153814Y289044D01*
X150956Y286186D01*
X147221Y284639D01*
X143179Y284639D01*
G37*
%LPD*%
%LPC*%
G36*
X143179Y106839D02*
X143179Y106839D01*
X139444Y108386D01*
X136586Y111244D01*
X135039Y114979D01*
X135039Y119021D01*
X136586Y122756D01*
X139444Y125614D01*
X143179Y127161D01*
X147221Y127161D01*
X150956Y125614D01*
X153814Y122756D01*
X155361Y119021D01*
X155361Y114979D01*
X153814Y111244D01*
X150956Y108386D01*
X147221Y106839D01*
X143179Y106839D01*
G37*
%LPD*%
%LPC*%
G36*
X143179Y335439D02*
X143179Y335439D01*
X139444Y336986D01*
X136586Y339844D01*
X135039Y343579D01*
X135039Y347621D01*
X136586Y351356D01*
X139444Y354214D01*
X143179Y355761D01*
X147221Y355761D01*
X150956Y354214D01*
X153814Y351356D01*
X155361Y347621D01*
X155361Y343579D01*
X153814Y339844D01*
X150956Y336986D01*
X147221Y335439D01*
X143179Y335439D01*
G37*
%LPD*%
%LPC*%
G36*
X295579Y259239D02*
X295579Y259239D01*
X291844Y260786D01*
X288986Y263644D01*
X287439Y267379D01*
X287439Y271421D01*
X288986Y275156D01*
X291844Y278014D01*
X295579Y279561D01*
X299621Y279561D01*
X303356Y278014D01*
X306214Y275156D01*
X307761Y271421D01*
X307761Y267379D01*
X306214Y263644D01*
X303356Y260786D01*
X299621Y259239D01*
X295579Y259239D01*
G37*
%LPD*%
%LPC*%
G36*
X143179Y233839D02*
X143179Y233839D01*
X139444Y235386D01*
X136586Y238244D01*
X135039Y241979D01*
X135039Y246021D01*
X136586Y249756D01*
X139444Y252614D01*
X143179Y254161D01*
X147221Y254161D01*
X150956Y252614D01*
X153814Y249756D01*
X155361Y246021D01*
X155361Y241979D01*
X153814Y238244D01*
X150956Y235386D01*
X147221Y233839D01*
X143179Y233839D01*
G37*
%LPD*%
%LPC*%
G36*
X295579Y335439D02*
X295579Y335439D01*
X291844Y336986D01*
X288986Y339844D01*
X287439Y343579D01*
X287439Y347621D01*
X288986Y351356D01*
X291844Y354214D01*
X295579Y355761D01*
X299621Y355761D01*
X303356Y354214D01*
X306214Y351356D01*
X307761Y347621D01*
X307761Y343579D01*
X306214Y339844D01*
X303356Y336986D01*
X299621Y335439D01*
X295579Y335439D01*
G37*
%LPD*%
%LPC*%
G36*
X295579Y284639D02*
X295579Y284639D01*
X291844Y286186D01*
X288986Y289044D01*
X287439Y292779D01*
X287439Y296821D01*
X288986Y300556D01*
X291844Y303414D01*
X295579Y304961D01*
X299621Y304961D01*
X303356Y303414D01*
X306214Y300556D01*
X307761Y296821D01*
X307761Y292779D01*
X306214Y289044D01*
X303356Y286186D01*
X299621Y284639D01*
X295579Y284639D01*
G37*
%LPD*%
%LPC*%
G36*
X76198Y46359D02*
X76198Y46359D01*
X74709Y47848D01*
X74709Y58952D01*
X76198Y60441D01*
X88302Y60441D01*
X89791Y58952D01*
X89791Y47848D01*
X88302Y46359D01*
X76198Y46359D01*
G37*
%LPD*%
%LPC*%
G36*
X416423Y224623D02*
X416423Y224623D01*
X416423Y229451D01*
X440300Y229451D01*
X440301Y229450D01*
X440301Y224623D01*
X416423Y224623D01*
G37*
%LPD*%
%LPC*%
G36*
X389499Y224623D02*
X389499Y224623D01*
X389499Y229450D01*
X389500Y229451D01*
X413377Y229451D01*
X413377Y224623D01*
X389499Y224623D01*
G37*
%LPD*%
%LPC*%
G36*
X389500Y216749D02*
X389500Y216749D01*
X389499Y216750D01*
X389499Y221577D01*
X413377Y221577D01*
X413377Y216749D01*
X389500Y216749D01*
G37*
%LPD*%
%LPC*%
G36*
X416423Y216749D02*
X416423Y216749D01*
X416423Y221577D01*
X440301Y221577D01*
X440301Y216750D01*
X440300Y216749D01*
X416423Y216749D01*
G37*
%LPD*%
%LPC*%
G36*
X375123Y276223D02*
X375123Y276223D01*
X375123Y289787D01*
X375823Y289648D01*
X377210Y289073D01*
X378458Y288239D01*
X379519Y287178D01*
X380353Y285930D01*
X380928Y284543D01*
X381221Y283071D01*
X381221Y276223D01*
X375123Y276223D01*
G37*
%LPD*%
%LPC*%
G36*
X375123Y273177D02*
X375123Y273177D01*
X381221Y273177D01*
X381221Y266329D01*
X380928Y264857D01*
X380353Y263470D01*
X379519Y262222D01*
X378458Y261161D01*
X377210Y260327D01*
X375823Y259752D01*
X375123Y259613D01*
X375123Y273177D01*
G37*
%LPD*%
%LPC*%
G36*
X365979Y276223D02*
X365979Y276223D01*
X365979Y283071D01*
X366272Y284543D01*
X366847Y285930D01*
X367681Y287178D01*
X368742Y288239D01*
X369990Y289073D01*
X371377Y289648D01*
X372077Y289787D01*
X372077Y276223D01*
X365979Y276223D01*
G37*
%LPD*%
%LPC*%
G36*
X371377Y259752D02*
X371377Y259752D01*
X369990Y260327D01*
X368742Y261161D01*
X367681Y262222D01*
X366847Y263470D01*
X366272Y264857D01*
X365979Y266329D01*
X365979Y273177D01*
X372077Y273177D01*
X372077Y259613D01*
X371377Y259752D01*
G37*
%LPD*%
%LPC*%
G36*
X119173Y242223D02*
X119173Y242223D01*
X119173Y251623D01*
X122984Y251623D01*
X122985Y251622D01*
X122985Y242223D01*
X119173Y242223D01*
G37*
%LPD*%
%LPC*%
G36*
X119173Y229777D02*
X119173Y229777D01*
X119173Y239177D01*
X122985Y239177D01*
X122985Y229778D01*
X122984Y229777D01*
X119173Y229777D01*
G37*
%LPD*%
%LPC*%
G36*
X112315Y242223D02*
X112315Y242223D01*
X112315Y251622D01*
X112316Y251623D01*
X116127Y251623D01*
X116127Y242223D01*
X112315Y242223D01*
G37*
%LPD*%
%LPC*%
G36*
X112316Y229777D02*
X112316Y229777D01*
X112315Y229778D01*
X112315Y239177D01*
X116127Y239177D01*
X116127Y229777D01*
X112316Y229777D01*
G37*
%LPD*%
%LPC*%
G36*
X299123Y372523D02*
X299123Y372523D01*
X299123Y378467D01*
X299823Y378328D01*
X301210Y377753D01*
X302458Y376919D01*
X303519Y375858D01*
X304353Y374610D01*
X304928Y373223D01*
X305067Y372523D01*
X299123Y372523D01*
G37*
%LPD*%
%LPC*%
G36*
X290133Y372523D02*
X290133Y372523D01*
X290272Y373223D01*
X290847Y374610D01*
X291681Y375858D01*
X292742Y376919D01*
X293990Y377753D01*
X295377Y378328D01*
X296077Y378467D01*
X296077Y372523D01*
X290133Y372523D01*
G37*
%LPD*%
%LPC*%
G36*
X299123Y369477D02*
X299123Y369477D01*
X305067Y369477D01*
X304928Y368777D01*
X304353Y367390D01*
X303519Y366142D01*
X302458Y365081D01*
X301210Y364247D01*
X299823Y363672D01*
X299123Y363533D01*
X299123Y369477D01*
G37*
%LPD*%
%LPC*%
G36*
X295377Y363672D02*
X295377Y363672D01*
X293990Y364247D01*
X292742Y365081D01*
X291681Y366142D01*
X290847Y367390D01*
X290272Y368777D01*
X290133Y369477D01*
X296077Y369477D01*
X296077Y363533D01*
X295377Y363672D01*
G37*
%LPD*%
%LPC*%
G36*
X398823Y12673D02*
X398823Y12673D01*
X398823Y15651D01*
X402300Y15651D01*
X402301Y15650D01*
X402301Y12673D01*
X398823Y12673D01*
G37*
%LPD*%
%LPC*%
G36*
X67773Y13923D02*
X67773Y13923D01*
X67773Y16901D01*
X71250Y16901D01*
X71251Y16900D01*
X71251Y13923D01*
X67773Y13923D01*
G37*
%LPD*%
%LPC*%
G36*
X61249Y54923D02*
X61249Y54923D01*
X61249Y57900D01*
X61250Y57901D01*
X64727Y57901D01*
X64727Y54923D01*
X61249Y54923D01*
G37*
%LPD*%
%LPC*%
G36*
X61249Y13923D02*
X61249Y13923D01*
X61249Y16900D01*
X61250Y16901D01*
X64727Y16901D01*
X64727Y13923D01*
X61249Y13923D01*
G37*
%LPD*%
%LPC*%
G36*
X392299Y12673D02*
X392299Y12673D01*
X392299Y15650D01*
X392300Y15651D01*
X395777Y15651D01*
X395777Y12673D01*
X392299Y12673D01*
G37*
%LPD*%
%LPC*%
G36*
X67773Y54923D02*
X67773Y54923D01*
X67773Y57901D01*
X71250Y57901D01*
X71251Y57900D01*
X71251Y54923D01*
X67773Y54923D01*
G37*
%LPD*%
%LPC*%
G36*
X398823Y53673D02*
X398823Y53673D01*
X398823Y56651D01*
X402300Y56651D01*
X402301Y56650D01*
X402301Y53673D01*
X398823Y53673D01*
G37*
%LPD*%
%LPC*%
G36*
X67773Y51877D02*
X67773Y51877D01*
X71251Y51877D01*
X71251Y48900D01*
X71250Y48899D01*
X67773Y48899D01*
X67773Y51877D01*
G37*
%LPD*%
%LPC*%
G36*
X398823Y50627D02*
X398823Y50627D01*
X402301Y50627D01*
X402301Y47650D01*
X402300Y47649D01*
X398823Y47649D01*
X398823Y50627D01*
G37*
%LPD*%
%LPC*%
G36*
X67773Y7899D02*
X67773Y7899D01*
X67773Y10877D01*
X71251Y10877D01*
X71251Y7900D01*
X71250Y7899D01*
X67773Y7899D01*
G37*
%LPD*%
%LPC*%
G36*
X398823Y6649D02*
X398823Y6649D01*
X398823Y9627D01*
X402301Y9627D01*
X402301Y6650D01*
X402300Y6649D01*
X398823Y6649D01*
G37*
%LPD*%
%LPC*%
G36*
X61250Y48899D02*
X61250Y48899D01*
X61249Y48900D01*
X61249Y51877D01*
X64727Y51877D01*
X64727Y48899D01*
X61250Y48899D01*
G37*
%LPD*%
%LPC*%
G36*
X392300Y6649D02*
X392300Y6649D01*
X392299Y6650D01*
X392299Y9627D01*
X395777Y9627D01*
X395777Y6649D01*
X392300Y6649D01*
G37*
%LPD*%
%LPC*%
G36*
X61250Y7899D02*
X61250Y7899D01*
X61249Y7900D01*
X61249Y10877D01*
X64727Y10877D01*
X64727Y7899D01*
X61250Y7899D01*
G37*
%LPD*%
%LPC*%
G36*
X297599Y370999D02*
X297599Y370999D01*
X297599Y371001D01*
X297601Y371001D01*
X297601Y370999D01*
X297599Y370999D01*
G37*
%LPD*%
%LPC*%
G36*
X373599Y274699D02*
X373599Y274699D01*
X373599Y274701D01*
X373601Y274701D01*
X373601Y274699D01*
X373599Y274699D01*
G37*
%LPD*%
%LPC*%
G36*
X414899Y223099D02*
X414899Y223099D01*
X414899Y223101D01*
X414901Y223101D01*
X414901Y223099D01*
X414899Y223099D01*
G37*
%LPD*%
%LPC*%
G36*
X117649Y240699D02*
X117649Y240699D01*
X117649Y240701D01*
X117651Y240701D01*
X117651Y240699D01*
X117649Y240699D01*
G37*
%LPD*%
%LPC*%
G36*
X66249Y12399D02*
X66249Y12399D01*
X66249Y12401D01*
X66251Y12401D01*
X66251Y12399D01*
X66249Y12399D01*
G37*
%LPD*%
%LPC*%
G36*
X397299Y11149D02*
X397299Y11149D01*
X397299Y11151D01*
X397301Y11151D01*
X397301Y11149D01*
X397299Y11149D01*
G37*
%LPD*%
%LPC*%
G36*
X66249Y53399D02*
X66249Y53399D01*
X66249Y53401D01*
X66251Y53401D01*
X66251Y53399D01*
X66249Y53399D01*
G37*
%LPD*%
D10*
X123825Y63500D03*
X123825Y165100D03*
D11*
X317500Y38100D03*
X317500Y63500D03*
X317500Y114300D03*
X317500Y139700D03*
X317500Y215900D03*
X317500Y241300D03*
X317500Y317500D03*
D12*
X127000Y317500D03*
D10*
X123825Y139700D03*
D13*
X319925Y88900D02*
X319927Y89074D01*
X319934Y89248D01*
X319944Y89422D01*
X319959Y89596D01*
X319978Y89769D01*
X320002Y89942D01*
X320030Y90114D01*
X320061Y90285D01*
X320098Y90456D01*
X320138Y90625D01*
X320182Y90794D01*
X320231Y90961D01*
X320283Y91127D01*
X320340Y91292D01*
X320401Y91455D01*
X320465Y91617D01*
X320534Y91777D01*
X320607Y91936D01*
X320683Y92092D01*
X320763Y92247D01*
X320847Y92400D01*
X320935Y92550D01*
X321027Y92698D01*
X321122Y92845D01*
X321220Y92988D01*
X321322Y93129D01*
X321428Y93268D01*
X321537Y93404D01*
X321649Y93538D01*
X321764Y93668D01*
X321883Y93796D01*
X322005Y93920D01*
X322129Y94042D01*
X322257Y94161D01*
X322387Y94276D01*
X322521Y94388D01*
X322657Y94497D01*
X322796Y94603D01*
X322937Y94705D01*
X323080Y94803D01*
X323227Y94898D01*
X323375Y94990D01*
X323525Y95078D01*
X323678Y95162D01*
X323833Y95242D01*
X323989Y95318D01*
X324148Y95391D01*
X324308Y95460D01*
X324470Y95524D01*
X324633Y95585D01*
X324798Y95642D01*
X324964Y95694D01*
X325131Y95743D01*
X325300Y95787D01*
X325469Y95827D01*
X325640Y95864D01*
X325811Y95895D01*
X325983Y95923D01*
X326156Y95947D01*
X326329Y95966D01*
X326503Y95981D01*
X326677Y95991D01*
X326851Y95998D01*
X327025Y96000D01*
X327199Y95998D01*
X327373Y95991D01*
X327547Y95981D01*
X327721Y95966D01*
X327894Y95947D01*
X328067Y95923D01*
X328239Y95895D01*
X328410Y95864D01*
X328581Y95827D01*
X328750Y95787D01*
X328919Y95743D01*
X329086Y95694D01*
X329252Y95642D01*
X329417Y95585D01*
X329580Y95524D01*
X329742Y95460D01*
X329902Y95391D01*
X330061Y95318D01*
X330217Y95242D01*
X330372Y95162D01*
X330525Y95078D01*
X330675Y94990D01*
X330823Y94898D01*
X330970Y94803D01*
X331113Y94705D01*
X331254Y94603D01*
X331393Y94497D01*
X331529Y94388D01*
X331663Y94276D01*
X331793Y94161D01*
X331921Y94042D01*
X332045Y93920D01*
X332167Y93796D01*
X332286Y93668D01*
X332401Y93538D01*
X332513Y93404D01*
X332622Y93268D01*
X332728Y93129D01*
X332830Y92988D01*
X332928Y92845D01*
X333023Y92698D01*
X333115Y92550D01*
X333203Y92400D01*
X333287Y92247D01*
X333367Y92092D01*
X333443Y91936D01*
X333516Y91777D01*
X333585Y91617D01*
X333649Y91455D01*
X333710Y91292D01*
X333767Y91127D01*
X333819Y90961D01*
X333868Y90794D01*
X333912Y90625D01*
X333952Y90456D01*
X333989Y90285D01*
X334020Y90114D01*
X334048Y89942D01*
X334072Y89769D01*
X334091Y89596D01*
X334106Y89422D01*
X334116Y89248D01*
X334123Y89074D01*
X334125Y88900D01*
X334123Y88726D01*
X334116Y88552D01*
X334106Y88378D01*
X334091Y88204D01*
X334072Y88031D01*
X334048Y87858D01*
X334020Y87686D01*
X333989Y87515D01*
X333952Y87344D01*
X333912Y87175D01*
X333868Y87006D01*
X333819Y86839D01*
X333767Y86673D01*
X333710Y86508D01*
X333649Y86345D01*
X333585Y86183D01*
X333516Y86023D01*
X333443Y85864D01*
X333367Y85708D01*
X333287Y85553D01*
X333203Y85400D01*
X333115Y85250D01*
X333023Y85102D01*
X332928Y84955D01*
X332830Y84812D01*
X332728Y84671D01*
X332622Y84532D01*
X332513Y84396D01*
X332401Y84262D01*
X332286Y84132D01*
X332167Y84004D01*
X332045Y83880D01*
X331921Y83758D01*
X331793Y83639D01*
X331663Y83524D01*
X331529Y83412D01*
X331393Y83303D01*
X331254Y83197D01*
X331113Y83095D01*
X330970Y82997D01*
X330823Y82902D01*
X330675Y82810D01*
X330525Y82722D01*
X330372Y82638D01*
X330217Y82558D01*
X330061Y82482D01*
X329902Y82409D01*
X329742Y82340D01*
X329580Y82276D01*
X329417Y82215D01*
X329252Y82158D01*
X329086Y82106D01*
X328919Y82057D01*
X328750Y82013D01*
X328581Y81973D01*
X328410Y81936D01*
X328239Y81905D01*
X328067Y81877D01*
X327894Y81853D01*
X327721Y81834D01*
X327547Y81819D01*
X327373Y81809D01*
X327199Y81802D01*
X327025Y81800D01*
X326851Y81802D01*
X326677Y81809D01*
X326503Y81819D01*
X326329Y81834D01*
X326156Y81853D01*
X325983Y81877D01*
X325811Y81905D01*
X325640Y81936D01*
X325469Y81973D01*
X325300Y82013D01*
X325131Y82057D01*
X324964Y82106D01*
X324798Y82158D01*
X324633Y82215D01*
X324470Y82276D01*
X324308Y82340D01*
X324148Y82409D01*
X323989Y82482D01*
X323833Y82558D01*
X323678Y82638D01*
X323525Y82722D01*
X323375Y82810D01*
X323227Y82902D01*
X323080Y82997D01*
X322937Y83095D01*
X322796Y83197D01*
X322657Y83303D01*
X322521Y83412D01*
X322387Y83524D01*
X322257Y83639D01*
X322129Y83758D01*
X322005Y83880D01*
X321883Y84004D01*
X321764Y84132D01*
X321649Y84262D01*
X321537Y84396D01*
X321428Y84532D01*
X321322Y84671D01*
X321220Y84812D01*
X321122Y84955D01*
X321027Y85102D01*
X320935Y85250D01*
X320847Y85400D01*
X320763Y85553D01*
X320683Y85708D01*
X320607Y85864D01*
X320534Y86023D01*
X320465Y86183D01*
X320401Y86345D01*
X320340Y86508D01*
X320283Y86673D01*
X320231Y86839D01*
X320182Y87006D01*
X320138Y87175D01*
X320098Y87344D01*
X320061Y87515D01*
X320030Y87686D01*
X320002Y87858D01*
X319978Y88031D01*
X319959Y88204D01*
X319944Y88378D01*
X319934Y88552D01*
X319927Y88726D01*
X319925Y88900D01*
X322535Y171450D02*
X322537Y171584D01*
X322543Y171717D01*
X322553Y171851D01*
X322567Y171984D01*
X322585Y172116D01*
X322606Y172248D01*
X322632Y172379D01*
X322662Y172510D01*
X322695Y172639D01*
X322733Y172767D01*
X322774Y172895D01*
X322819Y173021D01*
X322867Y173145D01*
X322920Y173268D01*
X322976Y173390D01*
X323035Y173509D01*
X323098Y173627D01*
X323165Y173743D01*
X323235Y173857D01*
X323308Y173969D01*
X323385Y174078D01*
X323465Y174186D01*
X323548Y174290D01*
X323634Y174393D01*
X323723Y174492D01*
X323815Y174589D01*
X323910Y174683D01*
X324007Y174775D01*
X324108Y174863D01*
X324211Y174948D01*
X324316Y175031D01*
X324424Y175110D01*
X324534Y175186D01*
X324646Y175258D01*
X324761Y175327D01*
X324877Y175393D01*
X324996Y175455D01*
X325116Y175514D01*
X325238Y175569D01*
X325361Y175620D01*
X325486Y175668D01*
X325612Y175712D01*
X325740Y175752D01*
X325868Y175788D01*
X325998Y175821D01*
X326129Y175850D01*
X326260Y175874D01*
X326392Y175895D01*
X326525Y175912D01*
X326658Y175925D01*
X326791Y175934D01*
X326925Y175939D01*
X327058Y175940D01*
X327192Y175937D01*
X327326Y175930D01*
X327459Y175919D01*
X327592Y175904D01*
X327724Y175885D01*
X327856Y175862D01*
X327987Y175836D01*
X328117Y175805D01*
X328246Y175771D01*
X328374Y175732D01*
X328501Y175690D01*
X328627Y175645D01*
X328751Y175595D01*
X328874Y175542D01*
X328995Y175485D01*
X329114Y175425D01*
X329231Y175361D01*
X329347Y175293D01*
X329460Y175222D01*
X329571Y175148D01*
X329680Y175071D01*
X329787Y174990D01*
X329891Y174906D01*
X329993Y174819D01*
X330092Y174729D01*
X330188Y174637D01*
X330282Y174541D01*
X330372Y174443D01*
X330460Y174342D01*
X330544Y174238D01*
X330626Y174132D01*
X330704Y174024D01*
X330779Y173913D01*
X330851Y173800D01*
X330919Y173685D01*
X330984Y173568D01*
X331045Y173450D01*
X331103Y173329D01*
X331157Y173207D01*
X331208Y173083D01*
X331254Y172958D01*
X331297Y172831D01*
X331337Y172703D01*
X331372Y172574D01*
X331403Y172444D01*
X331431Y172314D01*
X331455Y172182D01*
X331475Y172050D01*
X331491Y171917D01*
X331503Y171784D01*
X331511Y171650D01*
X331515Y171517D01*
X331515Y171383D01*
X331511Y171250D01*
X331503Y171116D01*
X331491Y170983D01*
X331475Y170850D01*
X331455Y170718D01*
X331431Y170586D01*
X331403Y170456D01*
X331372Y170326D01*
X331337Y170197D01*
X331297Y170069D01*
X331254Y169942D01*
X331208Y169817D01*
X331157Y169693D01*
X331103Y169571D01*
X331045Y169450D01*
X330984Y169332D01*
X330919Y169215D01*
X330851Y169100D01*
X330779Y168987D01*
X330704Y168876D01*
X330626Y168768D01*
X330544Y168662D01*
X330460Y168558D01*
X330372Y168457D01*
X330282Y168359D01*
X330188Y168263D01*
X330092Y168171D01*
X329993Y168081D01*
X329891Y167994D01*
X329787Y167910D01*
X329680Y167829D01*
X329571Y167752D01*
X329460Y167678D01*
X329347Y167607D01*
X329231Y167539D01*
X329114Y167475D01*
X328995Y167415D01*
X328874Y167358D01*
X328751Y167305D01*
X328627Y167255D01*
X328501Y167210D01*
X328374Y167168D01*
X328246Y167129D01*
X328117Y167095D01*
X327987Y167064D01*
X327856Y167038D01*
X327724Y167015D01*
X327592Y166996D01*
X327459Y166981D01*
X327326Y166970D01*
X327192Y166963D01*
X327058Y166960D01*
X326925Y166961D01*
X326791Y166966D01*
X326658Y166975D01*
X326525Y166988D01*
X326392Y167005D01*
X326260Y167026D01*
X326129Y167050D01*
X325998Y167079D01*
X325868Y167112D01*
X325740Y167148D01*
X325612Y167188D01*
X325486Y167232D01*
X325361Y167280D01*
X325238Y167331D01*
X325116Y167386D01*
X324996Y167445D01*
X324877Y167507D01*
X324761Y167573D01*
X324646Y167642D01*
X324534Y167714D01*
X324424Y167790D01*
X324316Y167869D01*
X324211Y167952D01*
X324108Y168037D01*
X324007Y168125D01*
X323910Y168217D01*
X323815Y168311D01*
X323723Y168408D01*
X323634Y168507D01*
X323548Y168610D01*
X323465Y168714D01*
X323385Y168822D01*
X323308Y168931D01*
X323235Y169043D01*
X323165Y169157D01*
X323098Y169273D01*
X323035Y169391D01*
X322976Y169510D01*
X322920Y169632D01*
X322867Y169755D01*
X322819Y169879D01*
X322774Y170005D01*
X322733Y170133D01*
X322695Y170261D01*
X322662Y170390D01*
X322632Y170521D01*
X322606Y170652D01*
X322585Y170784D01*
X322567Y170916D01*
X322553Y171049D01*
X322543Y171183D01*
X322537Y171316D01*
X322535Y171450D01*
X376510Y120650D02*
X376512Y120784D01*
X376518Y120917D01*
X376528Y121051D01*
X376542Y121184D01*
X376560Y121316D01*
X376581Y121448D01*
X376607Y121579D01*
X376637Y121710D01*
X376670Y121839D01*
X376708Y121967D01*
X376749Y122095D01*
X376794Y122221D01*
X376842Y122345D01*
X376895Y122468D01*
X376951Y122590D01*
X377010Y122709D01*
X377073Y122827D01*
X377140Y122943D01*
X377210Y123057D01*
X377283Y123169D01*
X377360Y123278D01*
X377440Y123386D01*
X377523Y123490D01*
X377609Y123593D01*
X377698Y123692D01*
X377790Y123789D01*
X377885Y123883D01*
X377982Y123975D01*
X378083Y124063D01*
X378186Y124148D01*
X378291Y124231D01*
X378399Y124310D01*
X378509Y124386D01*
X378621Y124458D01*
X378736Y124527D01*
X378852Y124593D01*
X378971Y124655D01*
X379091Y124714D01*
X379213Y124769D01*
X379336Y124820D01*
X379461Y124868D01*
X379587Y124912D01*
X379715Y124952D01*
X379843Y124988D01*
X379973Y125021D01*
X380104Y125050D01*
X380235Y125074D01*
X380367Y125095D01*
X380500Y125112D01*
X380633Y125125D01*
X380766Y125134D01*
X380900Y125139D01*
X381033Y125140D01*
X381167Y125137D01*
X381301Y125130D01*
X381434Y125119D01*
X381567Y125104D01*
X381699Y125085D01*
X381831Y125062D01*
X381962Y125036D01*
X382092Y125005D01*
X382221Y124971D01*
X382349Y124932D01*
X382476Y124890D01*
X382602Y124845D01*
X382726Y124795D01*
X382849Y124742D01*
X382970Y124685D01*
X383089Y124625D01*
X383206Y124561D01*
X383322Y124493D01*
X383435Y124422D01*
X383546Y124348D01*
X383655Y124271D01*
X383762Y124190D01*
X383866Y124106D01*
X383968Y124019D01*
X384067Y123929D01*
X384163Y123837D01*
X384257Y123741D01*
X384347Y123643D01*
X384435Y123542D01*
X384519Y123438D01*
X384601Y123332D01*
X384679Y123224D01*
X384754Y123113D01*
X384826Y123000D01*
X384894Y122885D01*
X384959Y122768D01*
X385020Y122650D01*
X385078Y122529D01*
X385132Y122407D01*
X385183Y122283D01*
X385229Y122158D01*
X385272Y122031D01*
X385312Y121903D01*
X385347Y121774D01*
X385378Y121644D01*
X385406Y121514D01*
X385430Y121382D01*
X385450Y121250D01*
X385466Y121117D01*
X385478Y120984D01*
X385486Y120850D01*
X385490Y120717D01*
X385490Y120583D01*
X385486Y120450D01*
X385478Y120316D01*
X385466Y120183D01*
X385450Y120050D01*
X385430Y119918D01*
X385406Y119786D01*
X385378Y119656D01*
X385347Y119526D01*
X385312Y119397D01*
X385272Y119269D01*
X385229Y119142D01*
X385183Y119017D01*
X385132Y118893D01*
X385078Y118771D01*
X385020Y118650D01*
X384959Y118532D01*
X384894Y118415D01*
X384826Y118300D01*
X384754Y118187D01*
X384679Y118076D01*
X384601Y117968D01*
X384519Y117862D01*
X384435Y117758D01*
X384347Y117657D01*
X384257Y117559D01*
X384163Y117463D01*
X384067Y117371D01*
X383968Y117281D01*
X383866Y117194D01*
X383762Y117110D01*
X383655Y117029D01*
X383546Y116952D01*
X383435Y116878D01*
X383322Y116807D01*
X383206Y116739D01*
X383089Y116675D01*
X382970Y116615D01*
X382849Y116558D01*
X382726Y116505D01*
X382602Y116455D01*
X382476Y116410D01*
X382349Y116368D01*
X382221Y116329D01*
X382092Y116295D01*
X381962Y116264D01*
X381831Y116238D01*
X381699Y116215D01*
X381567Y116196D01*
X381434Y116181D01*
X381301Y116170D01*
X381167Y116163D01*
X381033Y116160D01*
X380900Y116161D01*
X380766Y116166D01*
X380633Y116175D01*
X380500Y116188D01*
X380367Y116205D01*
X380235Y116226D01*
X380104Y116250D01*
X379973Y116279D01*
X379843Y116312D01*
X379715Y116348D01*
X379587Y116388D01*
X379461Y116432D01*
X379336Y116480D01*
X379213Y116531D01*
X379091Y116586D01*
X378971Y116645D01*
X378852Y116707D01*
X378736Y116773D01*
X378621Y116842D01*
X378509Y116914D01*
X378399Y116990D01*
X378291Y117069D01*
X378186Y117152D01*
X378083Y117237D01*
X377982Y117325D01*
X377885Y117417D01*
X377790Y117511D01*
X377698Y117608D01*
X377609Y117707D01*
X377523Y117810D01*
X377440Y117914D01*
X377360Y118022D01*
X377283Y118131D01*
X377210Y118243D01*
X377140Y118357D01*
X377073Y118473D01*
X377010Y118591D01*
X376951Y118710D01*
X376895Y118832D01*
X376842Y118955D01*
X376794Y119079D01*
X376749Y119205D01*
X376708Y119333D01*
X376670Y119461D01*
X376637Y119590D01*
X376607Y119721D01*
X376581Y119852D01*
X376560Y119984D01*
X376542Y120116D01*
X376528Y120249D01*
X376518Y120383D01*
X376512Y120516D01*
X376510Y120650D01*
X376510Y95250D02*
X376512Y95384D01*
X376518Y95517D01*
X376528Y95651D01*
X376542Y95784D01*
X376560Y95916D01*
X376581Y96048D01*
X376607Y96179D01*
X376637Y96310D01*
X376670Y96439D01*
X376708Y96567D01*
X376749Y96695D01*
X376794Y96821D01*
X376842Y96945D01*
X376895Y97068D01*
X376951Y97190D01*
X377010Y97309D01*
X377073Y97427D01*
X377140Y97543D01*
X377210Y97657D01*
X377283Y97769D01*
X377360Y97878D01*
X377440Y97986D01*
X377523Y98090D01*
X377609Y98193D01*
X377698Y98292D01*
X377790Y98389D01*
X377885Y98483D01*
X377982Y98575D01*
X378083Y98663D01*
X378186Y98748D01*
X378291Y98831D01*
X378399Y98910D01*
X378509Y98986D01*
X378621Y99058D01*
X378736Y99127D01*
X378852Y99193D01*
X378971Y99255D01*
X379091Y99314D01*
X379213Y99369D01*
X379336Y99420D01*
X379461Y99468D01*
X379587Y99512D01*
X379715Y99552D01*
X379843Y99588D01*
X379973Y99621D01*
X380104Y99650D01*
X380235Y99674D01*
X380367Y99695D01*
X380500Y99712D01*
X380633Y99725D01*
X380766Y99734D01*
X380900Y99739D01*
X381033Y99740D01*
X381167Y99737D01*
X381301Y99730D01*
X381434Y99719D01*
X381567Y99704D01*
X381699Y99685D01*
X381831Y99662D01*
X381962Y99636D01*
X382092Y99605D01*
X382221Y99571D01*
X382349Y99532D01*
X382476Y99490D01*
X382602Y99445D01*
X382726Y99395D01*
X382849Y99342D01*
X382970Y99285D01*
X383089Y99225D01*
X383206Y99161D01*
X383322Y99093D01*
X383435Y99022D01*
X383546Y98948D01*
X383655Y98871D01*
X383762Y98790D01*
X383866Y98706D01*
X383968Y98619D01*
X384067Y98529D01*
X384163Y98437D01*
X384257Y98341D01*
X384347Y98243D01*
X384435Y98142D01*
X384519Y98038D01*
X384601Y97932D01*
X384679Y97824D01*
X384754Y97713D01*
X384826Y97600D01*
X384894Y97485D01*
X384959Y97368D01*
X385020Y97250D01*
X385078Y97129D01*
X385132Y97007D01*
X385183Y96883D01*
X385229Y96758D01*
X385272Y96631D01*
X385312Y96503D01*
X385347Y96374D01*
X385378Y96244D01*
X385406Y96114D01*
X385430Y95982D01*
X385450Y95850D01*
X385466Y95717D01*
X385478Y95584D01*
X385486Y95450D01*
X385490Y95317D01*
X385490Y95183D01*
X385486Y95050D01*
X385478Y94916D01*
X385466Y94783D01*
X385450Y94650D01*
X385430Y94518D01*
X385406Y94386D01*
X385378Y94256D01*
X385347Y94126D01*
X385312Y93997D01*
X385272Y93869D01*
X385229Y93742D01*
X385183Y93617D01*
X385132Y93493D01*
X385078Y93371D01*
X385020Y93250D01*
X384959Y93132D01*
X384894Y93015D01*
X384826Y92900D01*
X384754Y92787D01*
X384679Y92676D01*
X384601Y92568D01*
X384519Y92462D01*
X384435Y92358D01*
X384347Y92257D01*
X384257Y92159D01*
X384163Y92063D01*
X384067Y91971D01*
X383968Y91881D01*
X383866Y91794D01*
X383762Y91710D01*
X383655Y91629D01*
X383546Y91552D01*
X383435Y91478D01*
X383322Y91407D01*
X383206Y91339D01*
X383089Y91275D01*
X382970Y91215D01*
X382849Y91158D01*
X382726Y91105D01*
X382602Y91055D01*
X382476Y91010D01*
X382349Y90968D01*
X382221Y90929D01*
X382092Y90895D01*
X381962Y90864D01*
X381831Y90838D01*
X381699Y90815D01*
X381567Y90796D01*
X381434Y90781D01*
X381301Y90770D01*
X381167Y90763D01*
X381033Y90760D01*
X380900Y90761D01*
X380766Y90766D01*
X380633Y90775D01*
X380500Y90788D01*
X380367Y90805D01*
X380235Y90826D01*
X380104Y90850D01*
X379973Y90879D01*
X379843Y90912D01*
X379715Y90948D01*
X379587Y90988D01*
X379461Y91032D01*
X379336Y91080D01*
X379213Y91131D01*
X379091Y91186D01*
X378971Y91245D01*
X378852Y91307D01*
X378736Y91373D01*
X378621Y91442D01*
X378509Y91514D01*
X378399Y91590D01*
X378291Y91669D01*
X378186Y91752D01*
X378083Y91837D01*
X377982Y91925D01*
X377885Y92017D01*
X377790Y92111D01*
X377698Y92208D01*
X377609Y92307D01*
X377523Y92410D01*
X377440Y92514D01*
X377360Y92622D01*
X377283Y92731D01*
X377210Y92843D01*
X377140Y92957D01*
X377073Y93073D01*
X377010Y93191D01*
X376951Y93310D01*
X376895Y93432D01*
X376842Y93555D01*
X376794Y93679D01*
X376749Y93805D01*
X376708Y93933D01*
X376670Y94061D01*
X376637Y94190D01*
X376607Y94321D01*
X376581Y94452D01*
X376560Y94584D01*
X376542Y94716D01*
X376528Y94849D01*
X376518Y94983D01*
X376512Y95116D01*
X376510Y95250D01*
X376510Y53975D02*
X376512Y54109D01*
X376518Y54242D01*
X376528Y54376D01*
X376542Y54509D01*
X376560Y54641D01*
X376581Y54773D01*
X376607Y54904D01*
X376637Y55035D01*
X376670Y55164D01*
X376708Y55292D01*
X376749Y55420D01*
X376794Y55546D01*
X376842Y55670D01*
X376895Y55793D01*
X376951Y55915D01*
X377010Y56034D01*
X377073Y56152D01*
X377140Y56268D01*
X377210Y56382D01*
X377283Y56494D01*
X377360Y56603D01*
X377440Y56711D01*
X377523Y56815D01*
X377609Y56918D01*
X377698Y57017D01*
X377790Y57114D01*
X377885Y57208D01*
X377982Y57300D01*
X378083Y57388D01*
X378186Y57473D01*
X378291Y57556D01*
X378399Y57635D01*
X378509Y57711D01*
X378621Y57783D01*
X378736Y57852D01*
X378852Y57918D01*
X378971Y57980D01*
X379091Y58039D01*
X379213Y58094D01*
X379336Y58145D01*
X379461Y58193D01*
X379587Y58237D01*
X379715Y58277D01*
X379843Y58313D01*
X379973Y58346D01*
X380104Y58375D01*
X380235Y58399D01*
X380367Y58420D01*
X380500Y58437D01*
X380633Y58450D01*
X380766Y58459D01*
X380900Y58464D01*
X381033Y58465D01*
X381167Y58462D01*
X381301Y58455D01*
X381434Y58444D01*
X381567Y58429D01*
X381699Y58410D01*
X381831Y58387D01*
X381962Y58361D01*
X382092Y58330D01*
X382221Y58296D01*
X382349Y58257D01*
X382476Y58215D01*
X382602Y58170D01*
X382726Y58120D01*
X382849Y58067D01*
X382970Y58010D01*
X383089Y57950D01*
X383206Y57886D01*
X383322Y57818D01*
X383435Y57747D01*
X383546Y57673D01*
X383655Y57596D01*
X383762Y57515D01*
X383866Y57431D01*
X383968Y57344D01*
X384067Y57254D01*
X384163Y57162D01*
X384257Y57066D01*
X384347Y56968D01*
X384435Y56867D01*
X384519Y56763D01*
X384601Y56657D01*
X384679Y56549D01*
X384754Y56438D01*
X384826Y56325D01*
X384894Y56210D01*
X384959Y56093D01*
X385020Y55975D01*
X385078Y55854D01*
X385132Y55732D01*
X385183Y55608D01*
X385229Y55483D01*
X385272Y55356D01*
X385312Y55228D01*
X385347Y55099D01*
X385378Y54969D01*
X385406Y54839D01*
X385430Y54707D01*
X385450Y54575D01*
X385466Y54442D01*
X385478Y54309D01*
X385486Y54175D01*
X385490Y54042D01*
X385490Y53908D01*
X385486Y53775D01*
X385478Y53641D01*
X385466Y53508D01*
X385450Y53375D01*
X385430Y53243D01*
X385406Y53111D01*
X385378Y52981D01*
X385347Y52851D01*
X385312Y52722D01*
X385272Y52594D01*
X385229Y52467D01*
X385183Y52342D01*
X385132Y52218D01*
X385078Y52096D01*
X385020Y51975D01*
X384959Y51857D01*
X384894Y51740D01*
X384826Y51625D01*
X384754Y51512D01*
X384679Y51401D01*
X384601Y51293D01*
X384519Y51187D01*
X384435Y51083D01*
X384347Y50982D01*
X384257Y50884D01*
X384163Y50788D01*
X384067Y50696D01*
X383968Y50606D01*
X383866Y50519D01*
X383762Y50435D01*
X383655Y50354D01*
X383546Y50277D01*
X383435Y50203D01*
X383322Y50132D01*
X383206Y50064D01*
X383089Y50000D01*
X382970Y49940D01*
X382849Y49883D01*
X382726Y49830D01*
X382602Y49780D01*
X382476Y49735D01*
X382349Y49693D01*
X382221Y49654D01*
X382092Y49620D01*
X381962Y49589D01*
X381831Y49563D01*
X381699Y49540D01*
X381567Y49521D01*
X381434Y49506D01*
X381301Y49495D01*
X381167Y49488D01*
X381033Y49485D01*
X380900Y49486D01*
X380766Y49491D01*
X380633Y49500D01*
X380500Y49513D01*
X380367Y49530D01*
X380235Y49551D01*
X380104Y49575D01*
X379973Y49604D01*
X379843Y49637D01*
X379715Y49673D01*
X379587Y49713D01*
X379461Y49757D01*
X379336Y49805D01*
X379213Y49856D01*
X379091Y49911D01*
X378971Y49970D01*
X378852Y50032D01*
X378736Y50098D01*
X378621Y50167D01*
X378509Y50239D01*
X378399Y50315D01*
X378291Y50394D01*
X378186Y50477D01*
X378083Y50562D01*
X377982Y50650D01*
X377885Y50742D01*
X377790Y50836D01*
X377698Y50933D01*
X377609Y51032D01*
X377523Y51135D01*
X377440Y51239D01*
X377360Y51347D01*
X377283Y51456D01*
X377210Y51568D01*
X377140Y51682D01*
X377073Y51798D01*
X377010Y51916D01*
X376951Y52035D01*
X376895Y52157D01*
X376842Y52280D01*
X376794Y52404D01*
X376749Y52530D01*
X376708Y52658D01*
X376670Y52786D01*
X376637Y52915D01*
X376607Y53046D01*
X376581Y53177D01*
X376560Y53309D01*
X376542Y53441D01*
X376528Y53574D01*
X376518Y53708D01*
X376512Y53841D01*
X376510Y53975D01*
D14*
X123825Y39688D03*
D15*
X145200Y218600D03*
X145200Y244000D03*
X145200Y269400D03*
X145200Y294800D03*
X145200Y320200D03*
X145200Y345600D03*
X145200Y193200D03*
X145200Y167800D03*
X145200Y142400D03*
X145200Y117000D03*
X145200Y91600D03*
X145200Y66200D03*
X145200Y40800D03*
X145200Y371000D03*
X145200Y396400D03*
X297600Y218600D03*
X297600Y193200D03*
X297600Y167800D03*
X297600Y142400D03*
X297600Y117000D03*
X297600Y91600D03*
X297600Y244000D03*
X297600Y269400D03*
X297600Y294800D03*
X297600Y320200D03*
X297600Y345600D03*
X297600Y371000D03*
X297600Y396400D03*
X297600Y66200D03*
X297600Y40800D03*
D16*
X82250Y12400D03*
X66250Y12400D03*
X66250Y53400D03*
X82250Y53400D03*
X381300Y52150D03*
X397300Y52150D03*
X397300Y11150D03*
X381300Y11150D03*
D12*
X414900Y70700D03*
X414900Y96100D03*
X414900Y121500D03*
X414900Y146900D03*
X414900Y172300D03*
X414900Y197700D03*
X414900Y223100D03*
D17*
X117650Y240700D03*
X66850Y240700D03*
X41450Y240700D03*
X16050Y240700D03*
D18*
X373600Y267080D02*
X373600Y282320D01*
X348200Y282320D02*
X348200Y267080D01*
D13*
X302700Y320200D02*
X297600Y320200D01*
X302700Y320200D02*
X348200Y274700D01*
X297600Y66200D02*
X276700Y66200D01*
X247650Y95250D01*
X104775Y95250D01*
X16050Y183975D01*
X16050Y200025D01*
X16050Y197700D02*
X16050Y240700D01*
X16050Y197700D02*
X414900Y197700D01*
X41450Y225250D02*
X41450Y240700D01*
X41450Y225250D02*
X50800Y215900D01*
X294900Y215900D01*
X297600Y218600D01*
X86025Y269400D02*
X66850Y250225D01*
X66850Y240700D01*
X294425Y244000D02*
X297600Y244000D01*
X294425Y244000D02*
X269025Y269400D01*
X86025Y269400D01*
X145200Y66200D02*
X238600Y66200D01*
X288925Y15875D01*
X339725Y15875D01*
X361950Y38100D01*
X361950Y133350D01*
X374650Y146050D01*
X406400Y146050D01*
X301250Y44450D02*
X297600Y40800D01*
X301250Y44450D02*
X342900Y44450D01*
X349250Y50800D01*
X349250Y158750D01*
X361950Y171450D01*
X414050Y171450D02*
X414900Y172300D01*
X414050Y171450D02*
X361950Y171450D01*
X225900Y142400D02*
X145200Y142400D01*
X225900Y142400D02*
X279400Y88900D01*
X323850Y88900D01*
X323375Y167800D02*
X145200Y167800D01*
X323375Y167800D02*
X327025Y171450D01*
X363500Y11150D02*
X381300Y11150D01*
X363500Y11150D02*
X361950Y12700D01*
X379750Y12700D01*
X381300Y11150D01*
X381300Y52150D01*
X145200Y40800D02*
X145200Y24550D01*
X136225Y15575D02*
X85425Y15575D01*
X82250Y12400D01*
X136225Y15575D02*
X145200Y24550D01*
M02*
