G04 EAGLE Gerber RS-274X export*
G75*
%MOMM*%
%FSLAX34Y34*%
%LPD*%
%INSoldermask Top*%
%IPPOS*%
%AMOC8*
5,1,8,0,0,1.08239X$1,22.5*%
G01*
%ADD10C,1.727200*%
%ADD11R,1.203200X1.103200*%
%ADD12R,5.283200X1.473200*%
%ADD13R,1.270000X2.387600*%
%ADD14C,1.727200*%


D10*
X145200Y218600D03*
X145200Y244000D03*
X145200Y269400D03*
X145200Y294800D03*
X145200Y320200D03*
X145200Y345600D03*
X145200Y193200D03*
X145200Y167800D03*
X145200Y142400D03*
X145200Y117000D03*
X145200Y91600D03*
X145200Y66200D03*
X145200Y40800D03*
X145200Y371000D03*
X145200Y396400D03*
X297600Y218600D03*
X297600Y193200D03*
X297600Y167800D03*
X297600Y142400D03*
X297600Y117000D03*
X297600Y91600D03*
X297600Y244000D03*
X297600Y269400D03*
X297600Y294800D03*
X297600Y320200D03*
X297600Y345600D03*
X297600Y371000D03*
X297600Y396400D03*
X297600Y66200D03*
X297600Y40800D03*
D11*
X82250Y12400D03*
X66250Y12400D03*
X66250Y53400D03*
X82250Y53400D03*
X381300Y52150D03*
X397300Y52150D03*
X397300Y11150D03*
X381300Y11150D03*
D12*
X414900Y70700D03*
X414900Y96100D03*
X414900Y121500D03*
X414900Y146900D03*
X414900Y172300D03*
X414900Y197700D03*
X414900Y223100D03*
D13*
X117650Y240700D03*
X66850Y240700D03*
X41450Y240700D03*
X16050Y240700D03*
D14*
X373600Y267080D02*
X373600Y282320D01*
X348200Y282320D02*
X348200Y267080D01*
M02*
