M48
;GenerationSoftware,Autodesk,EAGLE,9.6.2*%
;CreationDate,2020-11-12T22:00:41Z*%
FMAT,2
ICI,OFF
METRIC,TZ,000.000
T1C1.016
%
G90
M71
T1
X14520Y21860
X14520Y24400
X14520Y26940
X14520Y29480
X14520Y32020
X14520Y34560
X14520Y19320
X14520Y16780
X14520Y14240
X14520Y11700
X14520Y9160
X14520Y6620
X14520Y4080
X14520Y37100
X14520Y39640
X29760Y21860
X29760Y19320
X29760Y16780
X29760Y14240
X29760Y11700
X29760Y9160
X29760Y24400
X29760Y26940
X29760Y29480
X29760Y32020
X29760Y34560
X29760Y37100
X29760Y39640
X29760Y6620
X29760Y4080
X37360Y27470
X34820Y27470
M30